<svg xmlns="http://www.w3.org/2000/svg" width="424" height="242" fill="none" viewBox="0 0 424 242"><path fill="#fff" d="M29.145 187.872H18.703L0 229.811h9.524l4.36-10.385H33.62l4.418 10.385h9.81zm-12.622 24.957 7.287-17.671 7.171 17.671zm34.309-25.646h8.09v42.627h-8.09zm35.054 10.73c-4.877 0-9.524 1.492-11.933 5.279h-.115v-4.475h-8.09v43.086h8.09v-16.179h.115c.573 1.893 0 5.451 11.933 5.451s17.04-8.721 17.04-16.638-5.164-16.524-17.04-16.524m-1.893 26.851c-7.573 0-10.442-5.107-10.442-10.385s2.811-10.269 10.442-10.269c7.63 0 10.499 4.991 10.499 10.269s-2.926 10.385-10.5 10.385m24.213-37.581h8.09v16.237h.114c2.64-3.328 6.77-5.508 12.278-5.508s13.196 2.409 13.196 10.786v21.17h-8.09v-18.531c0-3.328-1.09-7.172-7.802-7.172-6.713 0-9.696 2.353-9.696 9.008v16.753h-8.09zm75.445 37.293c-.573 0-1.778 0-1.778-1.779h.115v-14.802c0-4.016-.459-10.442-16.753-10.442s-15.319 2.525-16.466 10.672h7.917c.287-3.443 3.787-5.164 8.491-5.164 4.705 0 8.836.918 8.836 4.475s-1.205 2.869-12.852 3.959c-5.163.459-13.999 3.672-13.999 9.811s3.557 9.753 12.68 9.753 13.023-2.754 14.63-4.303c.229 1.205.803 4.016 6.081 4.016s4.131-.402 5.738-.688v-5.68c-.632.114-1.894.172-2.64.172m-9.81-7.114c0 6.827-7.344 8.491-11.704 8.491s-6.541-.746-6.541-4.877 1.492-4.016 7.573-4.705c5.738-.631 8.262-.975 10.614-1.95v3.041zm49.111-22.892h-15.72v-6.598h40.276v6.598h-15.72v35.341h-8.836zm23.466 4.245h8.09v6.024h.115c2.18-3.499 5.507-6.884 11.761-6.884s2.18.114 3.213.287v7.974c-2.238-.688-3.787-.745-5.164-.745-4.131 0-9.925 2.18-9.925 9.409v15.031h-8.09v-31.153zm62.422 25.761c-.574 0-1.779 0-1.779-1.778h.115v-14.802c0-4.016-.459-10.442-16.753-10.442s-15.318 2.524-16.466 10.671h7.918c.287-3.442 3.786-5.163 8.491-5.163 4.704 0 8.835.918 8.835 4.475s-1.205 2.868-12.851 3.958c-5.164.459-13.999 3.672-13.999 9.811s3.557 9.753 12.679 9.753 13.024-2.754 14.63-4.303c.23 1.205.803 4.016 6.082 4.016 5.278 0 4.131-.401 5.737-.688v-5.68c-.631.115-1.893.172-2.639.172m-9.811-7.114c0 6.827-7.344 8.491-11.704 8.491s-6.54-.746-6.54-4.876 1.491-4.017 7.573-4.705c5.737-.631 8.261-.975 10.614-1.951v3.041zm43.714-30.236v15.949h-.115c-2.41-3.729 0-5.278-11.934-5.278s-17.039 8.491-17.039 16.523 5.163 16.638 17.039 16.638 11.36-3.557 11.934-5.45h.115v4.303h8.089v-42.685zm-10.155 37.636c-7.631 0-10.5-5.221-10.5-10.384s2.926-10.27 10.5-10.27 10.441 4.991 10.441 10.27c0 5.278-2.868 10.384-10.441 10.384m61.679-8.491v-1.147c0-9.123-8.033-17.614-19.105-17.614s-18.761 8.721-18.761 17.04 7.401 16.466 19.277 16.466 16.064-6.885 17.843-10.327h-8.836c-1.606 2.581-1.262 4.475-9.294 4.475s-10.384-5.393-10.557-8.836h29.433zm-18.991-13.196c3.959 0 9.524 1.836 10.5 8.09h-20.884c1.319-6.311 6.426-8.09 10.384-8.09m24.556-4.36h8.089v6.024h.115c2.18-3.499 5.508-6.884 11.761-6.884 6.254 0 2.18.114 3.213.287v7.974c-2.237-.688-3.786-.745-5.163-.745-4.131 0-9.926 2.18-9.926 9.409v15.031h-8.089v-31.153zM332.937 18.589v.172l-2.066 21.457-.975 10.614-1.836 19.908-10.04-10.04-30.006 24.9-5.336 4.417 37.924 45.611-29.26 24.326-37.924-45.668-4.417 3.672-27.711 23.006-.46.402c-1.147.917-2.294 1.835-3.499 2.696-13.196 9.639-29.432 15.318-46.988 15.318s-29.662-4.303-41.768-11.818c-19.048-11.762-32.76-31.268-36.718-54.102a78 78 0 0 1-1.205-13.77c0-37.865 26.449-69.592 61.848-77.682A79.5 79.5 0 0 1 170.343 0c22.719 0 43.259 9.524 57.716 24.785L199.144 48.88a65 65 0 0 0-4.303-3.614c-2.639-2.008-5.393-3.615-8.377-4.762a42.4 42.4 0 0 0-16.466-3.328c-23.35 0-42.226 18.933-42.226 42.226 0 23.294 18.703 41.997 41.825 42.226h.86c8.549 0 16.466-2.524 23.064-6.942 2.582-1.721 12.852-10.212 14.974-12.449l16.352-13.54 4.417-3.672 20.081-16.695 9.179-7.631 5.279-4.418 27.252-22.662L280.9 23.465l23.236-2.18 1.95-.172 8.492-.803 18.416-1.721z"/></svg>