<svg xmlns="http://www.w3.org/2000/svg" width="518" height="58" fill="none" viewBox="0 0 518 58"><path fill="#007aff" d="M20.477.895 0 46.752h13.393l3.595-8.9h19.76l3.596 8.9h13.673L33.424.895zm.445 27.407 5.921-14.635 5.98 14.635zm73.884 20.304c-.998 0-1.88-.22-2.771-.602-.883-.382-1.773-1.04-2.598-1.968-.058 0-.058-.057-.058-.057.058 0 .165-.057.28-.057 3.101-1.204 5.815-2.84 8.14-4.97 2.268-2.18 4.099-4.694 5.427-7.59 1.27-2.897 1.938-6.061 1.938-9.55 0-3.442-.668-6.607-1.938-9.503a24.2 24.2 0 0 0-5.427-7.59c-2.325-2.13-5.039-3.766-8.14-4.97C86.502.545 83.07 0 79.31 0c-3.71 0-7.141.545-10.291 1.749-3.159 1.204-5.864 2.84-8.19 5.02-2.325 2.13-4.148 4.636-5.426 7.532-1.27 2.896-1.938 6.06-1.938 9.502 0 3.49.668 6.662 1.938 9.502 1.27 2.896 3.101 5.401 5.427 7.59 2.325 2.13 5.038 3.823 8.189 5.019a27 27 0 0 0 5.261 1.31 102 102 0 0 0 4.429 4.254c1.773 1.53 3.488 2.782 5.146 3.71a20.8 20.8 0 0 0 5.088 2.017c1.715.383 3.596.602 5.591.602 5.427 0 9.798-1.912 13.006-5.784l-5.699-6.662c-2.103 2.155-4.486 3.246-7.034 3.246m-6.532-15.228a12 12 0 0 1-3.983 2.62c-1.55.658-3.208.927-4.981.927s-3.43-.277-4.924-.928c-1.55-.602-2.878-1.472-3.983-2.62-1.163-1.146-2.045-2.562-2.655-4.148-.668-1.635-.998-3.441-.998-5.402q-.002-2.95.998-5.401c.61-1.587 1.492-2.945 2.655-4.092a11.1 11.1 0 0 1 3.983-2.677c1.493-.602 3.159-.927 4.924-.927 1.773 0 3.43.325 4.98.927 1.493.602 2.821 1.53 3.984 2.677 1.105 1.147 1.996 2.514 2.656 4.092.61 1.635.94 3.44.94 5.401 0 1.969-.33 3.767-.94 5.402-.66 1.578-1.543 3.002-2.656 4.149M142.415.91h12.947v25.414c0 6.817-1.921 12.08-5.781 15.79s-9.212 5.564-16.073 5.564-12.222-1.855-16.073-5.564-5.781-8.981-5.781-15.79V.91h13.154v25.023c0 3.93.791 6.744 2.358 8.453 1.567 1.7 3.728 2.554 6.474 2.554s4.89-.854 6.441-2.554c1.542-1.709 2.325-4.524 2.325-8.453V.911zm76.291 25.202c-.157.082-.322.155-.478.236-4.017 1.953-7.546 3.702-14.605 3.889L190.444.895h-12.947l-20.535 45.857h13.393l5.789-14.212c3.917 2.758 9.707 5.401 18.028 6.483l3.133 7.729h13.723l-3.365-7.493c4.66-.496 8.124-1.602 11.035-2.871V46.76h13.153V31.108c3.802-.773 8.759-1.041 16.09-.341v-9.34c-6.82-.593-11.95-.374-16.09.26V10.926h23.314V.911h-36.459zm-38.925-2.489 4.082-10.014 6.169 15.212c-5.138-1.375-8.338-3.465-10.251-5.198M292.119.911h12.948v25.414c0 6.817-1.922 12.08-5.781 15.79q-5.78 5.565-16.073 5.564-10.295 0-16.073-5.564c-3.852-3.71-5.781-8.981-5.781-15.79V.91h13.153v25.023c0 3.93.792 6.744 2.359 8.453q2.352 2.552 6.474 2.554 4.117-.002 6.44-2.554c1.543-1.709 2.326-4.524 2.326-8.453V.911zm53.786 0h12.882v45.857h-10.828L327.44 22.331v24.437h-12.881V.911h10.828l20.518 24.438zm58.305 2.815C400.309 1.846 395.798.91 390.661.91h-21.978v45.857h21.978c5.137 0 9.657-.936 13.549-2.815 3.893-1.879 6.944-4.53 9.138-7.956 2.185-3.425 3.282-7.484 3.282-12.153 0-4.71-1.097-8.778-3.282-12.187-2.194-3.408-5.237-6.06-9.138-7.931m-2.523 26.894a10.76 10.76 0 0 1-4.619 4.328c-1.971.984-4.28 1.48-6.943 1.48h-8.305v-25.16h8.305c2.655 0 4.972.488 6.943 1.48 1.971.985 3.505 2.409 4.619 4.288 1.105 1.879 1.657 4.157 1.657 6.817 0 2.603-.552 4.865-1.657 6.768m35.205 6.126h24.304v10.022h-37.325V.911h36.459v10.022h-23.438v7.729h20.65v9.688h-20.65zm77.1-25.097c-2.194-3.408-5.237-6.052-9.137-7.931S496.443.903 491.305.903h-21.978V46.76h21.978q7.709.002 13.55-2.815 5.848-2.818 9.137-7.956c2.185-3.425 3.282-7.484 3.282-12.153.008-4.71-1.088-8.778-3.282-12.187M502.339 30.62a10.77 10.77 0 0 1-4.618 4.328c-1.971.984-4.28 1.48-6.944 1.48h-8.304V11.267h8.304c2.656 0 4.973.488 6.944 1.48 1.971.985 3.505 2.409 4.618 4.288 1.105 1.879 1.658 4.157 1.658 6.817 0 2.603-.553 4.865-1.658 6.768"/></svg>