<svg xmlns="http://www.w3.org/2000/svg" width="495" height="54" fill="none" viewBox="0 0 495 54"><path fill="#fff" d="M18.897.94 0 43.694h12.36l3.318-8.296h18.234l3.318 8.296h12.62L30.853.94zm.41 25.548 5.465-13.642 5.518 13.642zM87.49 45.423c-.92 0-1.735-.204-2.557-.56-.815-.357-1.636-.971-2.398-1.836-.053 0-.053-.053-.053-.053.053 0 .153-.053.259-.053 2.862-1.122 5.365-2.647 7.511-4.633 2.093-2.033 3.783-4.376 5.008-7.075 1.172-2.7 1.789-5.65 1.789-8.903s-.617-6.158-1.789-8.857c-1.225-2.7-2.915-5.089-5.008-7.076-2.146-1.986-4.65-3.51-7.511-4.633C79.826.622 76.661.114 73.19.114s-6.59.508-9.498 1.63c-2.915 1.122-5.411 2.647-7.557 4.679a20.9 20.9 0 0 0-5.008 7.022c-1.172 2.7-1.788 5.65-1.788 8.857 0 3.208.616 6.21 1.788 8.857 1.172 2.7 2.862 5.036 5.008 7.075 2.146 1.987 4.65 3.565 7.557 4.68a24.6 24.6 0 0 0 4.855 1.22 95 95 0 0 0 4.087 3.966c1.637 1.426 3.22 2.594 4.75 3.458a19 19 0 0 0 4.695 1.88 23.5 23.5 0 0 0 5.16.562c5.007 0 9.041-1.782 12.001-5.392l-5.258-6.21c-1.941 1.986-4.14 3.003-6.484 3.003zm-6.028-14.195a11.1 11.1 0 0 1-3.675 2.441c-1.431.615-2.96.865-4.597.865-1.636 0-3.166-.258-4.544-.865q-2.146-.839-3.675-2.441c-1.074-1.07-1.888-2.39-2.451-3.868-.617-1.524-.92-3.207-.92-5.035s.303-3.511.92-5.035c.563-1.479 1.377-2.745 2.45-3.815a10.2 10.2 0 0 1 3.676-2.495 12 12 0 0 1 4.544-.864c1.629 0 3.166.303 4.597.864 1.377.562 2.602 1.426 3.675 2.495 1.02 1.07 1.842 2.344 2.451 3.815.563 1.524.868 3.207.868 5.035s-.305 3.511-.868 5.035c-.616 1.479-1.43 2.798-2.45 3.868M131.425.963h11.949v23.69c0 6.355-1.774 11.261-5.335 14.719s-8.501 5.187-14.833 5.187q-9.5 0-14.833-5.187c-3.554-3.458-5.335-8.372-5.335-14.719V.963h12.139V24.29c0 3.663.73 6.287 2.176 7.879q2.17 2.38 5.975 2.381 3.8-.002 5.943-2.381c1.424-1.592 2.147-4.216 2.147-7.879V.963zm70.405 23.485c-.145.076-.297.144-.442.22-3.706 1.82-6.963 3.45-13.478 3.625L175.749.94H163.8l-18.95 42.747h12.359l5.343-13.248c3.615 2.57 8.957 5.035 16.636 6.044l2.892 7.204h12.664l-3.105-6.984c4.3-.463 7.496-1.494 10.183-2.677v9.668h12.139v-14.59c3.508-.72 8.082-.97 14.848-.318V20.08c-6.294-.553-11.028-.348-14.848.243V10.29h21.514V.963H201.83v23.493zm-35.922-2.313 3.767-9.335 5.693 14.181c-4.741-1.282-7.694-3.23-9.46-4.846M269.578.963h11.948v23.69c0 6.355-1.773 11.261-5.335 14.719-3.561 3.458-8.5 5.187-14.832 5.187q-9.5 0-14.833-5.187c-3.554-3.458-5.335-8.372-5.335-14.719V.963h12.139V24.29c0 3.663.73 6.287 2.176 7.879q2.171 2.38 5.974 2.381c3.803.001 4.513-.796 5.944-2.381 1.423-1.592 2.146-4.216 2.146-7.879V.963zm15.366 9.434h13.112v33.002h12.078V10.397h13.052V.857h-38.242zm69.963 13.68c0 3.647-.716 6.256-2.131 7.84-1.424 1.578-3.395 2.374-5.914 2.374s-4.505-.788-5.944-2.373q-2.169-2.369-2.169-7.841V.857h-12.077v23.576c0 6.317 1.773 11.208 5.304 14.643 3.539 3.443 8.455 5.164 14.764 5.164 6.31 0 11.226-1.721 14.765-5.164s5.304-8.326 5.304-14.643V.857h-11.895v23.212zm56.233.819q2.32-3.494 2.321-8.296c0-3.2-.776-6.044-2.321-8.418q-2.315-3.549-6.56-5.437c-2.823-1.259-6.187-1.88-10.099-1.88h-19.513v42.541h12.078V32.1h6.598l7.74 11.306h12.93l-9.224-13.4c2.58-1.22 4.604-2.919 6.05-5.11m-11.743-12.914c1.233 1.091 1.857 2.63 1.857 4.618 0 1.986-.624 3.465-1.857 4.557-1.24 1.092-3.12 1.646-5.647 1.646h-6.712V10.336h6.712q3.777 0 5.647 1.638zm32.664 14.34h18.966v-8.994h-18.966v-7.174h21.53V.857h-33.486v42.542h34.278v-9.297h-22.322zm61.63-1.366a10.6 10.6 0 0 0-3.448-3.587c-1.423-.91-2.998-1.637-4.726-2.191a55 55 0 0 0-5.19-1.365c-1.728-.364-3.318-.72-4.757-1.07-1.445-.34-2.602-.788-3.478-1.334-.875-.546-1.309-1.29-1.309-2.222q-.002-1.094.67-1.949.674-.852 2.192-1.365c1.02-.34 2.359-.515 4.026-.515q2.808 0 5.799.819c1.994.546 4.003 1.365 6.035 2.464l3.722-8.933c-2.116-1.213-4.521-2.138-7.23-2.768S480.54 0 477.732 0c-4.186 0-7.687.63-10.495 1.88-2.801 1.26-4.909 2.913-6.317 4.983-1.4 2.062-2.1 4.375-2.1 6.923 0 2.268.449 4.148 1.339 5.627A10.8 10.8 0 0 0 463.637 23a20.7 20.7 0 0 0 4.734 2.222 49 49 0 0 0 5.183 1.395q2.591.546 4.726 1.092c1.423.364 2.587.834 3.478 1.403.89.569 1.339 1.335 1.339 2.313q-.002 1.037-.7 1.79c-.464.5-1.21.91-2.23 1.213s-2.359.455-4.026.455c-2.473 0-4.969-.395-7.473-1.183-2.504-.789-4.703-1.79-6.614-3.01l-3.965 8.872q3.048 2.068 7.9 3.374c3.234.872 6.598 1.304 10.099 1.304 4.231 0 7.732-.629 10.525-1.88 2.786-1.251 4.879-2.927 6.279-5.013C494.3 35.262 495 32.98 495 30.507q.002-3.343-1.309-5.558z"/></svg>