<svg xmlns="http://www.w3.org/2000/svg" width="321" height="43" fill="none" viewBox="0 0 321 43"><path fill="#0d282c" d="M46.901 32.918c-3.614-3.283-7.895-5.745-12.591-7.113L25.713 8.691l-8.589 17.1c-4.68 1.354-8.951 3.796-12.563 7.056L21.06 0h9.305z"/><path fill="#0d282c" d="M51.424 41.924h-9.21c-4.073-4.496-9.957-7.323-16.502-7.323s-12.43 2.827-16.502 7.323H0l.304-.603s0-.005.003-.005a29.43 29.43 0 0 1 15.521-12.951 29.3 29.3 0 0 1 9.892-1.71c3.47 0 6.788.6 9.873 1.705a29.42 29.42 0 0 1 15.46 12.824zm97.324.067h-5.152V3.353h23.934v4.615h-18.782V19.56h16.636v4.615h-16.636zm41.704-27.905h4.83V41.99h-4.777v-3.11c0-.269-.107-.376-.375-.376s-.376.161-.59.43c-1.879 2.36-4.669 3.863-8.748 3.863-6.976 0-11.269-4.025-11.269-11.27v-17.44h4.83v16.636c0 5.098 2.683 7.781 7.513 7.781 5.366 0 8.586-3.22 8.586-9.928zm15.036 27.905h-4.83V14.086h4.776v3.112c0 .269.107.376.376.376.268 0 .375-.161.59-.43 1.825-2.414 4.669-3.863 8.747-3.863 6.977 0 11.27 4.025 11.27 11.27v17.44h-4.83V25.355c0-5.098-2.683-7.781-7.513-7.781-5.366 0-8.586 3.22-8.586 9.928zm24.534-13.952c0-10.197 6.977-14.758 13.738-14.758 3.918 0 6.977 1.234 9.231 3.917.161.215.322.376.59.376s.376-.161.376-.43V3.354h4.829v38.638h-4.776V38.88c0-.269-.107-.43-.375-.43-.269 0-.43.161-.591.376-2.307 2.737-5.366 3.971-9.284 3.971-6.761 0-13.738-4.561-13.738-14.757m4.884 0c0 6.707 4.025 10.464 9.659 10.464s9.66-3.757 9.66-10.465c0-6.707-4.025-10.464-9.66-10.464s-9.659 3.756-9.659 10.464m50.042 5.098h5.044c-.805 4.239-4.454 9.66-13.308 9.66-9.23 0-14.168-5.636-14.168-14.758s5.474-14.758 14.06-14.758c8.694 0 13.309 5.635 13.309 13.416v2.683h-22.566c.322 6.279 4.186 9.23 9.365 9.23 5.205 0 7.486-2.307 8.264-5.473m-8.372-15.67c-4.615 0-8.318 2.63-9.123 7.888h17.602c-.214-5.151-3.381-7.888-8.479-7.888m15.5 10.572c0-10.197 6.976-14.758 13.738-14.758 3.917 0 6.976 1.234 9.23 3.917.161.215.322.376.59.376.269 0 .376-.161.376-.43V3.354h4.83v38.638h-4.776V38.88c0-.269-.108-.43-.376-.43s-.429.161-.59.376c-2.308 2.737-5.367 3.971-9.284 3.971-6.762 0-13.738-4.561-13.738-14.757m4.883 0c0 6.707 4.025 10.464 9.66 10.464s9.659-3.757 9.659-10.465c0-6.707-4.025-10.464-9.659-10.464s-9.66 3.756-9.66 10.464M54.917 16.812h-6.845v-4.564h6.845V4.264h5.134v7.986h8.556v4.563h-8.556V36.49c0 .285.057.456.228.627s.342.228.628.228h7.7v4.564h-5.133c-5.79 0-8.557-2.767-8.557-8.556zM72.04 41.91V.84h5.134v41.07zm9.381-8.727c0-5.134 3.423-8.3 10.838-8.614l10.838-.456v-1.597c0-4.221-2.168-6.674-7.415-6.674-5.248 0-7.359 2.453-7.473 5.533h-5.305c.229-5.647 4.222-9.982 12.778-9.982s12.377 4.335 12.377 11.408V41.91h-4.905v-3.137q0-.343-.342-.343c-.228 0-.343.057-.571.343-2.11 2.823-5.248 3.992-9.126 3.992-7.416 0-11.694-3.878-11.694-9.583m5.134 0c0 3.137 2.567 5.133 7.13 5.133 5.704 0 9.412-3.251 9.412-9.526v-.342l-10.838.456c-3.993.172-5.704 1.712-5.704 4.278m37.768-21.79c7.016 0 12.606 3.023 13.177 10.267h-5.248c-.399-4.05-3.137-5.875-7.929-5.875s-6.788 1.825-6.788 4.278 1.769 3.309 5.819 4.079l4.221.798c5.418 1.027 10.153 2.795 10.153 8.67 0 5.876-4.506 9.155-12.15 9.155-7.643 0-13.376-3.308-13.861-10.381h5.219c.4 3.936 3.68 5.99 8.642 5.99 4.963 0 7.016-1.912 7.016-4.479 0-2.566-2.053-3.45-6.16-4.22l-4.221-.8c-5.79-1.083-9.811-3.05-9.811-8.755 0-5.704 4.905-8.727 11.921-8.727"/></svg>