<svg width="680" height="97" viewBox="0 0 680 97" fill="none" xmlns="http://www.w3.org/2000/svg">
<path d="M81.1581 13.685C83.2328 15.59 85.1906 17.6235 87.172 19.6244C87.6595 20.115 88.1473 20.6053 88.6352 21.0955C89.8181 22.2846 90.9994 23.4752 92.1796 24.667C91.2108 25.8249 90.2105 26.9291 89.1397 27.993C88.9266 28.2063 88.9266 28.2063 88.7091 28.424C88.2459 28.8873 87.7817 29.3498 87.3175 29.8122C86.9935 30.1359 86.6696 30.4596 86.3458 30.7834C85.4982 31.6306 84.6498 32.477 83.8012 33.3232C82.9335 34.1888 82.0665 35.0552 81.1995 35.9214C79.5017 37.6175 77.8032 39.3127 76.1041 41.0074C74.6982 39.8382 73.4098 38.5895 72.1301 37.2843C71.708 36.8575 71.2859 36.4308 70.8637 36.0042C70.2073 35.3396 69.5516 34.6744 68.8972 34.0077C64.7402 29.777 60.726 26.1645 54.9252 24.4116C54.6595 24.3297 54.3937 24.2477 54.1199 24.1633C47.3843 22.4048 40.0626 24.0461 34.1151 27.4396C32.7706 28.2487 31.5893 29.2313 30.4292 30.284C30.271 30.4186 30.1127 30.5532 29.9497 30.6919C25.5699 34.6677 23.4774 41.1302 23.0554 46.8525C22.7219 53.7406 25.0714 60.0611 29.6447 65.2098C33.5961 69.4576 39.4963 72.3977 45.317 72.6978C53.0051 72.9423 59.3367 70.9702 65.028 65.6676C65.7386 64.9719 66.4413 64.2687 67.1412 63.5621C67.4114 63.2912 67.6818 63.0204 67.9523 62.7497C68.689 62.0117 69.4241 61.2721 70.159 60.5323C70.9541 59.7323 71.7508 58.9338 72.5473 58.1352C73.9254 56.7532 75.3025 55.3702 76.6791 53.9867C78.6709 51.9851 80.6645 49.9854 82.6588 47.9862C85.8965 44.7404 89.1335 41.4939 92.3697 38.2464C92.6599 37.9553 92.6599 37.9553 92.9559 37.6582C95.7042 34.9003 98.4516 32.1417 101.199 29.3828C101.393 29.1883 101.586 28.9938 101.786 28.7934C101.979 28.5991 102.173 28.4049 102.372 28.2047C105.596 24.9665 108.823 21.7303 112.051 18.4957C114.041 16.5016 116.029 14.5057 118.015 12.5078C119.375 11.14 120.737 9.77401 122.101 8.40949C122.887 7.62212 123.673 6.83393 124.456 6.04348C125.173 5.31989 125.893 4.59869 126.615 3.87932C126.875 3.61876 127.135 3.35733 127.393 3.09495C130.107 0.344519 130.107 0.344519 132.171 0.0606431C132.394 0.0606859 132.618 0.0607285 132.847 0.0607726C133.236 0.0580863 133.236 0.0580863 133.632 0.0553457C133.911 0.0572973 134.19 0.0592489 134.477 0.0612596C134.775 0.0603275 135.072 0.0593954 135.379 0.0584351C136.36 0.0563709 137.34 0.0598355 138.321 0.0635659C139.003 0.0636984 139.685 0.0635795 140.367 0.0631803C141.795 0.0629553 143.223 0.0657747 144.65 0.070485C146.301 0.0758993 147.951 0.0767827 149.602 0.0751922C151.191 0.0737389 152.781 0.0751796 154.371 0.0780459C155.047 0.0790304 155.722 0.0793212 156.398 0.0789166C157.341 0.0788223 158.283 0.0820363 159.226 0.0861931C159.647 0.0852443 159.647 0.0852443 160.077 0.0842763C160.333 0.0860852 160.589 0.0878941 160.853 0.0897578C161.076 0.0902819 161.299 0.0908063 161.528 0.0913464C162.095 0.156319 162.095 0.156319 162.861 0.666957C162.485 1.53546 162.001 2.10154 161.334 2.76831C161.122 2.98196 160.909 3.19561 160.69 3.41574C160.457 3.648 160.223 3.88026 159.983 4.11956C159.734 4.36825 159.486 4.61704 159.238 4.86594C158.565 5.54132 157.889 6.2151 157.214 6.88856C156.505 7.59497 155.798 8.30273 155.091 9.01031C153.903 10.1996 152.713 11.3879 151.522 12.5755C150.15 13.9449 148.779 15.3156 147.408 16.6871C145.946 18.1506 144.482 19.6131 143.019 21.0753C142.599 21.4947 142.179 21.9143 141.76 22.334C141.097 22.9966 140.434 23.6586 139.77 24.32C139.414 24.6759 139.058 25.0324 138.702 25.3888C138.485 25.6046 138.268 25.8205 138.045 26.0428C137.859 26.2281 137.673 26.4134 137.482 26.6043C136.949 27.111 136.407 27.5948 135.851 28.076C134.854 28.9432 133.912 29.8526 132.98 30.7885C132.725 31.0436 132.725 31.0436 132.464 31.3037C131.899 31.868 131.335 32.4331 130.771 32.9982C130.364 33.4052 129.957 33.8122 129.55 34.2191C128.448 35.3205 127.347 36.4226 126.246 37.525C125.091 38.6806 123.937 39.8356 122.782 40.9907C120.719 43.0543 118.657 45.1186 116.595 47.1832C114.728 49.052 112.861 50.9201 110.993 52.7878C108.82 54.9609 106.647 57.1344 104.475 59.3086C103.327 60.4579 102.178 61.6071 101.029 62.7558C99.9492 63.8359 98.8696 64.9167 97.7905 65.998C97.3952 66.3938 96.9997 66.7894 96.604 67.1848C96.0622 67.7263 95.5212 68.2685 94.9804 68.8109C94.8251 68.9656 94.6699 69.1204 94.51 69.2798C93.5657 70.229 92.6715 71.2104 91.7979 72.2251C91.3356 72.7574 90.8516 73.2623 90.3537 73.7611C90.1663 73.9494 89.9789 74.1377 89.7858 74.3318C89.5893 74.5278 89.3928 74.7239 89.1904 74.9259C88.9825 75.1342 88.7747 75.3424 88.5605 75.5569C88.1236 75.9943 87.6864 76.4313 87.2488 76.8681C86.5838 77.5321 85.9202 78.1974 85.2567 78.8629C84.8297 79.29 84.4026 79.7171 83.9754 80.144C83.7795 80.3406 83.5835 80.5372 83.3816 80.7397C82.1871 81.9299 80.9567 83.0594 79.6764 84.1563C79.4429 84.3627 79.2094 84.569 78.9688 84.7816C69.638 92.8143 57.5368 96.9227 45.2289 96.1563C31.8637 95.1157 20.2701 89.1896 11.2916 79.3053C2.85423 69.3556 -0.765717 56.5347 0.134049 43.6294C1.10068 33.0976 5.54238 23.1292 12.8226 15.4755C12.9575 15.3323 13.0923 15.189 13.2312 15.0415C20.8229 7.02293 30.6215 2.55265 41.4014 0.666957C41.6891 0.616108 41.6891 0.616108 41.9826 0.564231C56.7432 -1.9165 70.2986 4.02205 81.1581 13.685Z" fill="#C94768"/>
<path d="M487.74 0.0536057C488.014 0.054431 488.014 0.054431 488.294 0.0552731C494.837 0.0866788 500.945 1.33892 506.845 4.2185C507.093 4.33863 507.34 4.45876 507.595 4.58253C510.865 6.27076 513.651 8.57137 516.286 11.1121C516.463 11.2731 516.64 11.434 516.823 11.5998C519.733 14.3264 521.877 17.8031 523.686 21.3249C523.781 21.506 523.876 21.6871 523.974 21.8737C529.439 32.3848 530.066 43.581 530.066 55.2823C509.014 55.2823 487.963 55.2823 466.274 55.2823C468.247 62.6143 470.281 69.5966 477.112 73.6982C482.463 76.771 489.12 77.4134 495.099 75.9393C499.339 74.7535 502.715 72.301 505.059 68.5589C505.726 67.3164 506.284 66.0218 506.845 64.7291C508.442 61.0585 508.442 61.0585 510.418 60.1334C512.367 59.4888 514.313 59.5576 516.342 59.5729C516.717 59.5738 517.092 59.5746 517.466 59.5751C518.446 59.577 519.426 59.582 520.406 59.5877C521.408 59.5929 522.411 59.5953 523.413 59.5978C525.376 59.6033 527.338 59.612 529.3 59.6228C528.535 65.4437 528.535 65.4437 527.817 67.7611C527.751 67.9814 527.685 68.2018 527.617 68.4288C524.62 78.2355 518.506 86.4861 509.496 91.4839C498.817 97.1289 485.29 97.5856 473.875 94.0711C462.924 90.4473 454.517 82.6754 449.31 72.4814C442.972 59.7266 442.287 43.9145 446.642 30.4047C450.467 19.1695 457.911 9.82257 468.538 4.4419C471.328 3.06951 474.096 1.95173 477.118 1.2185C477.431 1.14238 477.431 1.14238 477.75 1.06472C481.056 0.308649 484.356 0.0351249 487.74 0.0536057ZM473.163 24.644C473.006 24.7981 472.849 24.9521 472.687 25.1108C469.653 28.3278 467.659 32.8111 467.039 37.1547C480.344 37.1547 493.648 37.1547 507.356 37.1547C506.876 32.3534 505.257 28.0119 501.997 24.3887C501.846 24.211 501.695 24.0333 501.54 23.8501C498.694 20.717 494.077 18.9552 489.906 18.7403C483.376 18.54 477.933 19.9528 473.163 24.644Z" fill="white"/>
<path d="M645.899 1.44011C646.09 1.47702 646.282 1.51392 646.479 1.55194C651.685 2.57235 656.679 4.54935 660.699 8.07841C660.892 8.23507 661.085 8.39174 661.284 8.55315C662.899 9.89907 664.101 11.4597 665.292 13.1848C665.5 13.4785 665.5 13.4785 665.713 13.7782C669.507 19.547 669.923 26.8219 669.921 33.4993C669.922 33.9409 669.923 34.3825 669.924 34.824C669.926 35.7683 669.927 36.7125 669.928 37.6568C669.929 39.1517 669.934 40.6467 669.938 42.1416C669.94 42.6552 669.942 43.1689 669.943 43.6825C669.944 43.9395 669.945 44.1965 669.946 44.4613C669.956 47.9368 669.965 51.4124 669.968 54.8879C669.97 57.2396 669.976 59.5912 669.986 61.9428C669.991 63.1847 669.994 64.4264 669.993 65.6683C669.991 66.8354 669.995 68.0024 670.002 69.1696C670.004 69.5963 670.004 70.023 670.002 70.4497C669.993 72.7281 670.063 74.6984 671.161 76.7593C671.329 77.1058 671.329 77.1058 671.501 77.4594C671.601 77.6391 671.701 77.8188 671.804 78.0039C671.921 78.2152 672.038 78.4264 672.158 78.6441C672.281 78.8646 672.405 79.0852 672.532 79.3125C672.803 79.8027 673.074 80.2931 673.344 80.7835C673.487 81.0404 673.629 81.2972 673.775 81.5618C674.567 83.0032 675.343 84.4534 676.12 85.9029C676.412 86.4472 676.704 86.9914 676.997 87.5355C677.131 87.7865 677.266 88.0375 677.404 88.2961C677.871 89.1545 678.357 90.0014 678.851 90.8444C679.071 91.3125 679.071 91.3125 679.071 92.0784C673.558 94.825 666.917 95.6542 660.954 93.8656C658.981 93.1982 657.259 92.3085 655.595 91.0571C655.441 90.9452 655.287 90.8333 655.129 90.718C653.737 89.6266 652.705 88.2073 651.768 86.7167C651.768 86.5482 651.768 86.3797 651.768 86.2061C651.658 86.2946 651.548 86.3831 651.434 86.4743C644.713 91.8441 636.946 95.3964 628.193 95.4494C627.994 95.4512 627.796 95.453 627.591 95.4548C626.953 95.4593 626.315 95.4609 625.677 95.4614C625.459 95.4616 625.241 95.4617 625.017 95.4619C621.799 95.4579 618.681 95.3669 615.534 94.6316C615.344 94.5891 615.154 94.5467 614.958 94.5029C609.5 93.2496 604.794 90.8598 600.734 86.972C600.54 86.7969 600.346 86.6218 600.146 86.4414C595.721 82.3046 593.594 76.1947 593.303 70.2372C593.071 62.3987 594.424 55.3824 599.897 49.4481C601.61 47.637 603.447 46.1447 605.583 44.8444C605.734 44.7507 605.885 44.657 606.041 44.5605C614.533 39.4035 625.387 38.1439 635.015 36.569C642.32 35.7582 642.32 35.7582 648.594 32.4295C649.647 30.6892 649.455 28.0968 649.042 26.1502C648.205 23.6755 646.899 22.0675 644.659 20.7267C639.332 18.1147 632.208 18.4431 626.634 20.0864C623.726 21.0832 621.7 22.6254 620.246 25.3583C618.976 28.2381 618.629 31.2755 618.341 34.3763C616.155 34.8046 613.96 35.1083 611.75 35.3836C611.393 35.4286 611.035 35.4737 610.677 35.5188C609.932 35.6124 609.188 35.7055 608.443 35.7981C607.493 35.9164 606.543 36.0365 605.592 36.157C604.856 36.2502 604.119 36.3424 603.382 36.4343C603.032 36.4781 602.681 36.5223 602.331 36.5668C601.841 36.629 601.351 36.6895 600.861 36.7501C600.583 36.7848 600.305 36.8196 600.019 36.8554C599.148 36.9345 598.292 36.9419 597.417 36.9295C597.167 27.6571 598.763 18.6589 605.251 11.6359C610.435 6.19578 616.854 2.92268 624.21 1.44011C624.486 1.38229 624.486 1.38229 624.768 1.3233C631.448 -0.00895786 639.234 0.0739346 645.899 1.44011ZM648.423 51.5555C643.118 53.2351 637.737 54.5056 632.285 55.5983C623.892 57.0193 623.892 57.0193 617.065 61.6954C615.447 64.5119 614.977 67.8171 615.821 70.9827C616.577 73.0802 617.646 74.5938 619.626 75.6662C622.067 76.7218 624.626 77.1833 627.272 77.2699C627.474 77.2801 627.676 77.2903 627.885 77.3008C633.999 77.4739 639.843 75.5572 644.368 71.3976C646.997 68.8361 648.584 66.0191 649.471 62.4614C649.539 62.1937 649.539 62.1937 649.609 61.9206C649.771 60.9045 649.758 59.9092 649.751 58.8819C649.751 58.6627 649.751 58.4435 649.75 58.2177C649.749 57.5205 649.746 56.8234 649.742 56.1263C649.741 55.6524 649.74 55.1785 649.739 54.7046C649.736 53.5455 649.732 52.3864 649.727 51.2273C649.273 51.2273 648.851 51.4176 648.423 51.5555Z" fill="white"/>
<path d="M215.681 0.591592C215.894 0.589801 216.107 0.58801 216.327 0.586165C217.012 0.581718 217.697 0.580075 218.382 0.579624C218.616 0.579451 218.85 0.579279 219.091 0.579102C228.196 0.589747 238.073 2.11662 245.015 8.55835C245.219 8.74496 245.423 8.93157 245.633 9.12384C250.71 13.9742 253.273 21.2055 253.461 28.1374C253.477 29.314 253.478 30.4906 253.48 31.6673C253.481 32.1196 253.483 32.5719 253.485 33.0242C253.489 33.9947 253.492 34.9651 253.494 35.9356C253.498 37.4711 253.504 39.0066 253.511 40.5421C253.529 44.9071 253.544 49.2722 253.557 53.6373C253.564 56.0509 253.573 58.4644 253.584 60.8779C253.591 62.4034 253.596 63.9288 253.599 65.4543C253.601 66.404 253.605 67.3537 253.61 68.3033C253.612 68.7426 253.613 69.1819 253.613 69.6211C253.614 70.2224 253.617 70.8236 253.621 71.4248C253.623 71.9287 253.623 71.9287 253.625 72.4428C253.746 74.2154 254.246 75.6735 255.092 77.2412C255.179 77.4046 255.267 77.5679 255.357 77.7362C255.639 78.2632 255.925 78.7885 256.21 79.3137C256.407 79.6789 256.603 80.0443 256.8 80.4098C257.287 81.315 257.776 82.2188 258.267 83.1219C258.666 83.8564 259.064 84.5916 259.462 85.3266C259.959 86.2431 260.458 87.1588 260.959 88.0733C261.064 88.2658 261.17 88.4583 261.278 88.6566C261.505 89.0667 261.735 89.4753 261.967 89.8826C262.084 90.0893 262.202 90.2959 262.322 90.5088C262.429 90.6941 262.535 90.8794 262.645 91.0704C262.877 91.5371 262.877 91.5371 262.877 92.0477C256.879 94.9423 249.933 95.7278 243.561 93.5058C241.685 92.7598 240.126 91.8772 238.636 90.5158C238.455 90.3522 238.274 90.1886 238.088 90.0201C236.946 88.9351 236.08 87.8084 235.319 86.4307C234.398 87.0336 233.509 87.6573 232.63 88.3198C225.724 93.453 217.841 95.4235 209.339 95.4307C209.129 95.4309 208.918 95.4312 208.7 95.4315C205.524 95.4288 202.448 95.3121 199.34 94.6009C199.081 94.5435 199.081 94.5435 198.818 94.485C191.96 92.9217 185.123 89.3425 181.151 83.3339C176.926 76.271 175.962 68.3478 177.667 60.3034C179.37 53.636 183.331 48.4056 189.214 44.8516C189.527 44.6679 189.84 44.485 190.154 44.303C190.3 44.2169 190.446 44.1307 190.596 44.042C198.967 39.1986 209.737 37.9892 219.113 36.4475C221.696 36.0197 224.261 35.5604 226.809 34.9619C227.135 34.8864 227.135 34.8864 227.466 34.8094C229.428 34.3315 231.362 33.7552 232.544 32.0158C233.347 29.3759 233.134 26.8553 231.993 24.3123C230.427 21.5806 227.98 20.4407 225.072 19.5441C219.704 18.2197 212.966 18.4595 208.016 21.069C205.308 22.7264 203.787 25.006 202.927 28.0464C202.441 30.1444 202.252 32.1989 202.147 34.3456C198.319 34.9459 194.482 35.4537 190.638 35.9329C189.665 36.0544 188.692 36.1776 187.719 36.3009C187.096 36.3789 186.473 36.4569 185.85 36.5347C185.561 36.5714 185.273 36.6081 184.975 36.6459C184.706 36.6792 184.436 36.7125 184.159 36.7469C183.806 36.791 183.806 36.791 183.446 36.8361C182.702 36.9035 181.97 36.9092 181.223 36.8988C181.063 28.5295 181.063 28.5295 181.989 24.8988C182.031 24.7232 182.074 24.5476 182.117 24.3667C184.038 16.5294 189.143 10.0103 195.988 5.81429C201.878 2.3571 208.866 0.630147 215.681 0.591592ZM231.824 51.5806C226.47 53.305 221.045 54.5156 215.535 55.6177C207.207 57.081 207.207 57.081 200.584 61.8881C198.944 64.446 198.815 67.5764 199.372 70.4732C199.913 72.6506 200.998 74.0977 202.836 75.3722C207.35 77.9491 213.885 77.7198 218.783 76.4732C224.139 74.9695 228.742 71.6881 231.57 66.8529C232.832 64.3741 233.318 61.9991 233.302 59.2502C233.302 59.0196 233.301 58.7891 233.301 58.5516C233.3 57.818 233.296 57.0845 233.293 56.3509C233.292 55.8524 233.291 55.3539 233.29 54.8554C233.287 53.6358 233.283 52.4162 233.277 51.1966C232.78 51.1966 232.291 51.4275 231.824 51.5806Z" fill="white"/>
<path d="M397.026 0.0533703C397.308 0.0540684 397.308 0.0540684 397.595 0.0547806C408.642 0.100593 418.77 3.49876 426.721 11.3672C432.324 17.1013 435.583 24.4306 436.88 32.2874C436.912 32.4775 436.943 32.6675 436.976 32.8634C437.209 34.4211 437.183 35.7908 437.183 37.4098C430.11 37.4098 423.037 37.4098 415.749 37.4098C415.496 35.8089 415.244 34.208 414.984 32.5587C413.706 28.0507 411.725 24.4235 407.663 21.8672C402.633 19.1334 395.947 18.5891 390.471 20.2026C387.769 21.1089 385.198 22.4639 383.088 24.3885C382.779 24.6625 382.779 24.6625 382.464 24.942C377.339 29.748 374.869 37.2668 374.615 44.1677C374.589 45.2066 374.584 46.245 374.587 47.2842C374.587 47.9205 374.581 48.5566 374.575 49.1928C374.551 55.2891 375.784 60.9244 378.75 66.2608C378.886 66.5126 379.021 66.7644 379.161 67.0238C380.918 70.0382 383.593 72.5376 386.66 74.1757C386.873 74.2925 387.086 74.4094 387.306 74.5298C392.22 76.9955 398.797 77.4262 404.011 75.7076C405.978 75.0268 407.705 74.1491 409.37 72.8991C409.581 72.7411 409.792 72.5832 410.01 72.4204C413.052 69.8251 414.282 65.9209 415.148 62.1639C415.65 60.1191 416.493 58.346 418.221 57.0693C419.39 56.3628 420.144 56.2719 421.488 56.2744C421.655 56.2743 421.822 56.2743 421.994 56.2743C422.545 56.2744 423.095 56.2764 423.646 56.2784C424.028 56.2789 424.411 56.2793 424.793 56.2795C425.798 56.2805 426.804 56.283 427.809 56.2858C428.836 56.2885 429.862 56.2896 430.888 56.2909C432.901 56.2936 434.915 56.298 436.928 56.3034C436.931 56.9529 436.934 57.6024 436.936 58.2519C436.937 58.4342 436.938 58.6164 436.939 58.8042C436.942 60.307 436.834 61.7718 436.625 63.2608C436.591 63.5087 436.557 63.7567 436.521 64.0121C435.074 73.9213 430.501 82.9071 422.383 88.9842C413.119 95.4056 400.905 97.5569 389.841 95.7385C386.11 95.0509 382.452 94.1686 379.005 92.5587C378.761 92.4472 378.761 92.4472 378.513 92.3335C374.759 90.6043 371.404 88.3833 368.288 85.6651C368.1 85.5027 368.1 85.5027 367.908 85.3371C366.044 83.7174 364.438 82.0132 362.929 80.0481C362.75 79.8272 362.57 79.6064 362.385 79.3788C356.22 71.5854 352.722 61.1856 352.671 51.2658C352.669 51.0348 352.667 50.8038 352.665 50.5657C352.661 49.824 352.659 49.0823 352.659 48.3406C352.659 48.0877 352.659 47.8348 352.658 47.5743C352.662 43.9655 352.725 40.4403 353.488 36.8991C353.552 36.5886 353.552 36.5886 353.617 36.2718C355.452 27.5237 359.471 19.7408 365.481 13.1544C365.682 12.9323 365.882 12.7101 366.089 12.4812C374.067 4.07892 385.621 -0.00590824 397.026 0.0533703Z" fill="white"/>
<path d="M269.012 2.20114C272.227 1.9744 275.44 1.80309 278.662 1.69846C280.159 1.64817 281.651 1.58039 283.145 1.46922C292.511 0.790613 292.511 0.790613 295.128 2.62027C297.535 4.79259 298.956 7.77379 300.303 10.6701C301.129 12.4151 302.209 13.9863 303.302 15.5722C303.849 16.3739 304.378 17.1885 304.908 18.002C306.449 20.3529 307.992 22.7026 309.535 25.0522C309.667 25.2523 309.798 25.4525 309.934 25.6587C310.667 26.7757 311.401 27.8927 312.135 29.0097C313.532 27.1197 314.862 25.1963 316.154 23.2331C317.505 21.1917 318.878 19.1717 320.298 17.1778C321.145 15.9868 321.964 14.7806 322.769 13.5609C324.218 11.3745 325.705 9.21375 327.19 7.05221C327.303 6.88604 327.417 6.71988 327.534 6.54868C328.814 4.68148 330.063 2.91701 332.293 2.20114C333.045 2.12959 333.792 2.13659 334.546 2.14317C334.77 2.1431 334.995 2.14303 335.225 2.14295C335.964 2.1433 336.703 2.14727 337.441 2.15128C337.954 2.15223 338.468 2.15296 338.981 2.15347C340.329 2.15541 341.678 2.16043 343.027 2.16608C344.403 2.17131 345.78 2.17364 347.157 2.17621C349.858 2.18168 352.558 2.1904 355.258 2.20114C354.15 4.15859 354.15 4.15859 353.464 5.07149C353.251 5.35761 353.251 5.35761 353.033 5.64951C352.883 5.8491 352.734 6.0487 352.579 6.25434C351.406 7.83137 350.246 9.41566 349.118 11.0256C347.392 13.4868 345.629 15.9208 343.866 18.3553C342.379 20.4096 340.897 22.4668 339.438 24.5416C337.705 27.0067 335.937 29.4468 334.17 31.8872C332.543 34.1338 330.922 36.3834 329.335 38.6582C328.703 39.5608 328.059 40.4491 327.386 41.3218C327.254 41.4949 327.122 41.6679 326.986 41.8462C326.735 42.1735 326.481 42.4985 326.223 42.8205C325.751 43.4397 325.415 43.8986 325.365 44.6888C325.817 45.7064 326.459 46.5528 327.126 47.4405C327.43 47.8537 327.735 48.2669 328.039 48.6802C328.273 48.9958 328.273 48.9958 328.512 49.3179C329.228 50.287 329.931 51.2655 330.635 52.2437C330.911 52.6267 331.187 53.0097 331.464 53.3926C333.122 55.6905 334.781 57.9884 336.44 60.2863C336.645 60.5707 336.645 60.5707 336.854 60.861C337.13 61.2431 337.406 61.6253 337.682 62.0074C338.382 62.9778 339.083 63.948 339.784 64.9179C341.136 66.7901 342.486 68.6642 343.826 70.5454C345.105 72.3388 346.396 74.123 347.687 75.9081C348.382 76.8708 349.077 77.8338 349.772 78.7969C350.049 79.1799 350.325 79.5629 350.601 79.9458C351.154 80.7118 351.707 81.4777 352.26 82.2437C352.397 82.4334 352.534 82.6231 352.675 82.8185C352.951 83.2004 353.226 83.5823 353.502 83.9643C354.205 84.9384 354.908 85.9118 355.613 86.8843C360.362 93.4388 360.362 93.4388 360.362 93.8607C357.298 93.8785 354.235 93.8921 351.172 93.9004C349.749 93.9044 348.327 93.9098 346.905 93.9185C345.531 93.9268 344.158 93.9314 342.785 93.9334C342.262 93.9348 341.738 93.9376 341.215 93.9417C340.48 93.9473 339.746 93.948 339.012 93.9477C338.689 93.9518 338.689 93.9518 338.359 93.956C336.378 93.9457 334.962 93.3472 333.487 92.0095C332.727 91.2173 332.141 90.3263 331.544 89.4086C331.255 88.9762 330.966 88.544 330.677 88.1121C330.451 87.7712 330.451 87.7712 330.219 87.4234C329.385 86.1805 328.525 84.955 327.668 83.7277C326.515 82.0719 325.364 80.4142 324.224 78.749C323.181 77.2262 322.125 75.7125 321.066 74.2011C320.006 72.6898 318.951 71.1759 317.908 69.6533C317.686 69.3298 317.464 69.0063 317.241 68.6829C316.814 68.0611 316.388 67.4387 315.963 66.8155C315.406 65.9997 314.847 65.1854 314.288 64.3714C314.019 63.975 314.019 63.975 313.744 63.5707C313.576 63.3267 313.408 63.0828 313.234 62.8315C313.084 62.6114 312.933 62.3914 312.778 62.1647C312.586 61.93 312.586 61.93 312.39 61.6905C312.222 61.6905 312.053 61.6905 311.88 61.6905C311.456 62.2215 311.456 62.2215 311.014 62.9202C310.836 63.1904 310.658 63.4605 310.475 63.7388C310.379 63.8855 310.284 64.0322 310.185 64.1833C309.777 64.8113 309.364 65.4367 308.951 66.0622C308.732 66.3941 308.513 66.7262 308.295 67.0584C307.098 68.8759 305.878 70.6772 304.655 72.4777C304.43 72.8103 304.204 73.1429 303.979 73.4755C303.524 74.147 303.068 74.8184 302.613 75.4898C301.817 76.6626 301.023 77.836 300.229 79.0098C299.67 79.8356 299.111 80.6611 298.551 81.486C297.548 82.9643 296.547 84.4442 295.561 85.9339C295.125 86.5911 294.688 87.2469 294.25 87.9026C294.046 88.2097 293.843 88.5175 293.641 88.826C290.854 93.0814 290.854 93.0814 288.404 93.8607C287.645 93.9322 286.89 93.9253 286.128 93.9187C285.901 93.9188 285.675 93.9188 285.441 93.9189C284.694 93.9186 283.947 93.9146 283.2 93.9106C282.682 93.9096 282.163 93.9089 281.644 93.9084C280.28 93.9065 278.917 93.9014 277.553 93.8958C276.161 93.8906 274.768 93.8882 273.376 93.8857C270.645 93.8802 267.915 93.8715 265.184 93.8607C265.587 92.7913 266.075 92.0411 266.795 91.148C267.898 89.7542 268.912 88.3134 269.905 86.8394C271.042 85.1554 272.22 83.5333 273.473 81.9335C274.351 80.8014 275.164 79.6242 275.986 78.4511C276.92 77.1172 277.865 75.792 278.82 74.4724C278.957 74.2827 279.094 74.093 279.235 73.8975C279.514 73.5122 279.793 73.1269 280.072 72.7417C280.782 71.7606 281.492 70.7788 282.201 69.7969C282.339 69.6047 282.478 69.4125 282.621 69.2145C283.549 67.9289 284.472 66.6399 285.391 65.3485C286.405 63.9265 287.428 62.5115 288.451 61.0961C289.29 59.9351 290.125 58.772 290.956 57.6054C291.913 56.2615 292.877 54.9219 293.843 53.5841C293.98 53.3934 294.118 53.2026 294.26 53.0061C295 51.9803 295.743 50.9564 296.489 49.9349C296.641 49.7256 296.794 49.5164 296.951 49.3008C297.244 48.8981 297.538 48.496 297.833 48.0945C297.965 47.9132 298.097 47.732 298.232 47.5452C298.349 47.386 298.465 47.2267 298.585 47.0626C298.912 46.5956 298.912 46.5956 299.121 45.8607C298.84 45.2971 298.84 45.2971 298.397 44.7078C298.233 44.4756 298.069 44.2434 297.9 44.0042C297.719 43.7532 297.538 43.5023 297.351 43.2437C296.971 42.7078 296.592 42.1719 296.212 41.636C296.014 41.3589 295.817 41.0818 295.619 40.8047C294.735 39.5609 293.866 38.3065 292.997 37.0522C292.658 36.5638 292.318 36.0754 291.979 35.5871C291.291 34.5986 290.604 33.6098 289.917 32.621C288.166 30.1001 286.412 27.5813 284.651 25.067C283.342 23.1984 282.041 21.3254 280.739 19.4521C279.496 17.6627 278.248 15.8765 276.998 14.0918C275.667 12.1909 274.344 10.2847 273.022 8.37749C272.268 7.29211 271.512 6.20928 270.738 5.13831C270.617 4.97091 270.496 4.80351 270.372 4.63104C270.153 4.32943 269.933 4.02859 269.711 3.7287C269.012 2.76705 269.012 2.76705 269.012 2.20114Z" fill="white"/>
<path d="M589.768 3.46422C589.768 9.69912 589.768 15.934 589.768 22.3578C587.41 22.1051 585.053 21.8523 582.623 21.5919C581.404 21.5312 580.232 21.4788 579.019 21.4961C578.596 21.5 578.596 21.5 578.164 21.504C573.478 21.5919 568.55 22.3091 565.017 25.677C564.842 25.8386 564.668 26.0002 564.488 26.1667C559.82 30.9085 559.583 38.4006 559.577 44.6303C559.575 45.1692 559.572 45.708 559.569 46.2468C559.562 47.6993 559.558 49.1519 559.555 50.6044C559.551 52.1262 559.544 53.648 559.538 55.1698C559.526 58.0469 559.516 60.9241 559.508 63.8013C559.498 67.0788 559.486 70.3563 559.473 73.6338C559.446 80.3716 559.424 87.1094 559.403 93.8472C552.33 93.8472 545.257 93.8472 537.969 93.8472C537.969 63.5995 537.969 33.3519 537.969 2.18763C555.479 2.18763 555.479 2.18763 557.679 4.24215C558.886 5.5842 559.247 7.11026 559.658 8.82593C559.875 8.66531 560.091 8.5047 560.314 8.33922C569.303 1.74138 579.124 -0.795886 589.768 3.46422Z" fill="white"/>
<path d="M122.565 55.0527C123.27 55.3759 123.793 55.7069 124.341 56.2555C124.483 56.3969 124.626 56.5383 124.772 56.6839C124.926 56.8392 125.08 56.9945 125.239 57.1545C125.404 57.3195 125.57 57.4845 125.74 57.6545C126.295 58.2086 126.849 58.7645 127.402 59.3204C127.799 59.7176 128.197 60.1147 128.594 60.5117C129.674 61.5909 130.752 62.6716 131.83 63.7526C132.956 64.8819 134.084 66.0099 135.212 67.138C137.104 69.0322 138.996 70.9274 140.887 72.8232C142.835 74.7755 144.783 76.7269 146.733 78.6773C146.913 78.8576 146.913 78.8576 147.097 79.0416C147.217 79.1616 147.337 79.2816 147.46 79.4053C149.566 81.5117 151.67 83.6188 153.775 85.7263C154.672 86.6249 155.569 87.5233 156.467 88.4215C157.522 89.4777 158.577 90.5346 159.631 91.592C160.019 91.9812 160.407 92.3701 160.796 92.7589C161.324 93.287 161.851 93.8159 162.378 94.3451C162.534 94.5009 162.691 94.6568 162.851 94.8174C163.902 95.8746 163.902 95.8746 163.902 96.1591C159.736 96.177 155.571 96.1905 151.405 96.1988C149.471 96.2028 147.537 96.2081 145.603 96.2169C143.917 96.2245 142.231 96.2295 140.545 96.2312C139.652 96.2322 138.759 96.2345 137.867 96.2401C136.87 96.2463 135.873 96.2464 134.876 96.2461C134.581 96.2488 134.286 96.2516 133.982 96.2544C131.691 96.2456 130.488 95.7448 128.867 94.1377C128.701 93.9694 128.535 93.8011 128.364 93.6277C128.185 93.4491 128.006 93.2704 127.822 93.0864C127.232 92.4971 126.645 91.9051 126.058 91.313C125.647 90.901 125.236 90.4891 124.825 90.0774C123.963 89.2142 123.103 88.3498 122.244 87.4844C121.146 86.379 120.047 85.2758 118.946 84.1733C117.892 83.1179 116.84 82.0612 115.788 81.0045C115.589 80.8048 115.39 80.605 115.184 80.3991C114.616 79.8286 114.048 79.2572 113.481 78.6855C113.316 78.5198 113.15 78.3541 112.98 78.1833C112.02 77.2141 111.106 76.2175 110.219 75.1816C109.527 74.394 108.782 73.6606 108.036 72.9251C107.886 72.776 107.736 72.6269 107.581 72.4733C107.218 72.1126 106.854 71.7528 106.489 71.3932C107.458 70.2352 108.458 69.131 109.529 68.0671C109.671 67.9249 109.813 67.7827 109.96 67.6362C110.423 67.1728 110.887 66.7103 111.351 66.2479C111.675 65.9242 111.999 65.6005 112.323 65.2767C113.171 64.4295 114.019 63.5831 114.868 62.7369C115.735 61.8713 116.602 61.005 117.469 60.1387C119.167 58.4426 120.866 56.7474 122.565 55.0527Z" fill="#31317C"/>
<path d="M81.1705 13.685C83.2452 15.59 85.203 17.6235 87.1844 19.6244C87.6718 20.115 88.1597 20.6053 88.6476 21.0955C89.8304 22.2846 91.0118 23.4752 92.192 24.667C91.2232 25.8249 90.2229 26.9291 89.1521 27.993C88.9389 28.2063 88.9389 28.2063 88.7215 28.424C88.2582 28.8873 87.7941 29.3498 87.3299 29.8122C87.0059 30.1359 86.682 30.4596 86.3582 30.7834C85.5106 31.6306 84.6622 32.477 83.8136 33.3232C82.9459 34.1888 82.0789 35.0552 81.2119 35.9214C79.5141 37.6175 77.8156 39.3127 76.1165 41.0074C74.6958 39.8249 73.3879 38.5623 72.0886 37.2484C71.8796 37.0382 71.6705 36.8281 71.4551 36.6116C70.7915 35.9445 70.1288 35.2766 69.4662 34.6084C68.5921 33.727 67.7172 32.8465 66.8418 31.9665C66.6432 31.7657 66.4446 31.5648 66.24 31.3579C65.443 30.5569 64.6526 29.7685 63.7779 29.0523C63.225 28.5972 62.7925 28.1793 62.3444 27.6281C61.0255 26.0828 59.5701 24.6685 58.1326 23.2348C57.634 22.7373 57.1367 22.2383 56.6396 21.7393C55.221 20.3192 53.8089 18.9057 52.2782 17.6052C51.6994 17.1128 51.1526 16.5872 50.5998 16.0659C44.6655 10.6761 37.6233 6.4961 29.4209 6.5393C27.2934 6.67756 25.3718 7.1369 23.3806 7.89069C22.7865 8.07121 22.7865 8.07121 22.2762 7.81589C27.9776 3.82 34.6262 1.85429 41.4138 0.666957C41.6056 0.633057 41.7974 0.599158 41.995 0.564231C56.7556 -1.9165 70.311 4.02205 81.1705 13.685Z" fill="#F59546"/>
<path d="M25.3382 6.5377C24.7429 7.43113 24.5197 7.46525 23.5202 7.73451C23.1718 7.83078 23.1718 7.83078 22.8164 7.92899C22.6382 7.97539 22.4599 8.0218 22.2762 8.06961C24.0892 6.12113 24.0892 6.12113 25.3382 6.5377Z" fill="#F5B830"/>
</svg>
