<svg xmlns="http://www.w3.org/2000/svg" width="680" height="97" fill="none" viewBox="0 0 680 97"><path fill="#c94768" d="M81.158 13.685c2.075 1.905 4.033 3.938 6.014 5.94l1.463 1.47q1.774 1.785 3.545 3.572a49 49 0 0 1-3.04 3.326l-.43.431-1.392 1.388-.972.971q-1.272 1.272-2.545 2.54L81.2 35.921l-5.095 5.086c-1.406-1.169-2.694-2.417-3.974-3.723l-1.266-1.28a903 903 0 0 1-1.967-1.996c-4.157-4.231-8.171-7.844-13.972-9.596l-.805-.249c-6.736-1.758-14.057-.117-20.005 3.277-1.344.809-2.526 1.791-3.686 2.844q-.236.202-.48.408c-4.38 3.976-6.472 10.438-6.894 16.16-.333 6.889 2.016 13.21 6.59 18.358 3.951 4.248 9.851 7.188 15.672 7.488 7.688.244 14.02-1.728 19.711-7.03q1.064-1.046 2.113-2.106l.811-.812q1.105-1.108 2.207-2.218 1.193-1.2 2.388-2.397l4.132-4.148q2.989-3.003 5.98-6l9.71-9.74.587-.589 8.243-8.275.587-.59.586-.588q4.837-4.857 9.679-9.71 2.985-2.99 5.964-5.987a2168 2168 0 0 1 4.086-4.099q1.18-1.18 2.355-2.366 1.076-1.084 2.159-2.164.39-.39.778-.784c2.714-2.75 2.714-2.75 4.778-3.034h.676l.785-.006.845.006.902-.003q1.471-.001 2.942.006h2.046q2.142 0 4.283.006 2.476.008 4.952.005 2.384-.001 4.769.003h2.027q1.414.001 2.828.008l.851-.002.776.006.675.001c.567.065.567.065 1.333.576-.376.868-.86 1.435-1.527 2.101l-.644.648-.707.704-.745.746q-1.01 1.013-2.024 2.023-1.063 1.06-2.123 2.121-1.782 1.784-3.569 3.566-2.058 2.054-4.114 4.111-2.194 2.196-4.389 4.388l-1.259 1.259q-.994.994-1.99 1.986l-1.068 1.069-.657.654-.563.561c-.533.507-1.075.99-1.631 1.472a55 55 0 0 0-2.871 2.712l-.516.516-1.693 1.694-1.221 1.221-3.304 3.306-3.464 3.466-6.187 6.192-5.602 5.605a19082 19082 0 0 0-9.964 9.968l-4.425 4.429q-.813.812-1.624 1.626l-.47.469a56 56 0 0 0-2.712 2.945 30 30 0 0 1-1.444 1.536l-.568.57-.596.595-.63.63q-.655.657-1.311 1.312-.998.997-1.992 1.995l-1.875 1.877a67 67 0 0 1-3.706 3.416l-.707.626c-9.331 8.032-21.432 12.14-33.74 11.374-13.365-1.04-24.959-6.966-33.937-16.85C2.854 69.355-.766 56.534.134 43.628c.967-10.531 5.408-20.5 12.689-28.153l.408-.435C20.823 7.023 30.621 2.553 41.401.667l.582-.103c14.76-2.48 28.316 3.458 39.175 13.121"/><path fill="#fff" d="m487.74.054.554.001c6.543.032 12.651 1.284 18.551 4.164l.75.364c3.27 1.688 6.056 3.988 8.691 6.53l.537.487c2.91 2.726 5.054 6.203 6.863 9.725l.288.549c5.465 10.51 6.092 21.707 6.092 33.408h-63.792c1.973 7.332 4.007 14.315 10.838 18.416 5.351 3.073 12.008 3.715 17.987 2.241 4.24-1.185 7.616-3.638 9.96-7.38.667-1.243 1.225-2.537 1.786-3.83 1.597-3.67 1.597-3.67 3.573-4.596 1.949-.644 3.895-.575 5.924-.56l1.124.002q1.47.004 2.94.013 1.503.007 3.007.01 2.944.008 5.887.025c-.765 5.82-.765 5.82-1.483 8.138l-.2.668c-2.997 9.807-9.111 18.057-18.121 23.055-10.679 5.645-24.206 6.102-35.621 2.587-10.951-3.624-19.358-11.396-24.565-21.59-6.338-12.754-7.023-28.566-2.668-42.076 3.825-11.236 11.269-20.582 21.896-25.963 2.79-1.372 5.558-2.49 8.58-3.224l.632-.153c3.306-.756 6.606-1.03 9.99-1.011m-14.577 24.59-.476.467c-3.034 3.217-5.028 7.7-5.648 12.044h40.317c-.48-4.802-2.099-9.143-5.359-12.766l-.457-.539c-2.846-3.133-7.463-4.895-11.634-5.11-6.53-.2-11.973 1.213-16.743 5.904M645.899 1.44l.58.112c5.206 1.02 10.2 2.997 14.22 6.526l.585.475c1.615 1.346 2.817 2.907 4.008 4.632l.421.593c3.794 5.769 4.21 13.044 4.208 19.721l.007 4.158q.003 2.242.01 4.485l.005 1.54.003.78q.016 5.212.022 10.426.003 3.527.018 7.055.008 1.862.007 3.725a454 454 0 0 0 .009 3.502q.003.64 0 1.28c-.009 2.278.061 4.248 1.159 6.31l.34.7.303.544.354.64.374.668 1.243 2.25c.792 1.441 1.568 2.891 2.345 4.34q.438.818.877 1.633l.407.761a92 92 0 0 0 1.447 2.548c.22.469.22.469.22 1.234-5.513 2.747-12.154 3.576-18.117 1.788-1.973-.668-3.695-1.558-5.359-2.809l-.466-.339c-1.392-1.091-2.424-2.51-3.361-4.001v-.51l-.334.267c-6.721 5.37-14.488 8.922-23.241 8.975l-.602.006q-.957.006-1.914.006h-.66c-3.218-.003-6.336-.094-9.483-.83l-.576-.128c-5.458-1.253-10.164-3.643-14.224-7.531l-.588-.53c-4.425-4.137-6.552-10.247-6.843-16.205-.232-7.838 1.121-14.855 6.594-20.789a27 27 0 0 1 5.686-4.604l.458-.284c8.492-5.157 19.346-6.416 28.974-7.991 7.305-.81 7.305-.81 13.579-4.14 1.053-1.74.861-4.332.448-6.279-.837-2.474-2.143-4.082-4.383-5.423-5.327-2.612-12.451-2.284-18.025-.64-2.908.996-4.934 2.538-6.388 5.271-1.27 2.88-1.617 5.918-1.905 9.018-2.186.429-4.381.732-6.591 1.008l-1.073.135-2.234.28q-1.425.176-2.851.358a1169 1169 0 0 1-3.261.41l-1.47.183-.842.105c-.871.08-1.727.087-2.602.075-.25-9.273 1.346-18.271 7.834-25.294 5.184-5.44 11.603-8.713 18.959-10.196l.558-.117c6.68-1.332 14.466-1.25 21.131.117m2.524 50.116c-5.305 1.68-10.686 2.95-16.138 4.042-8.393 1.421-8.393 1.421-15.22 6.097-1.618 2.817-2.088 6.122-1.244 9.288.756 2.097 1.825 3.61 3.805 4.683 2.441 1.056 5 1.517 7.646 1.604l.613.03c6.114.174 11.958-1.743 16.483-5.902 2.629-2.562 4.216-5.379 5.103-8.937l.138-.54c.162-1.017.149-2.012.142-3.04l-.001-.663q-.002-1.047-.008-2.092l-.003-1.421q-.005-1.74-.012-3.478c-.454 0-.876.19-1.304.329M215.681.592l.646-.006a352 352 0 0 1 2.764-.007c9.105.01 18.982 1.538 25.924 7.98l.618.565c5.077 4.85 7.64 12.082 7.828 19.013.016 1.177.017 2.354.019 3.53l.005 1.357q.006 1.455.009 2.912.006 2.302.017 4.606.027 6.547.046 13.095.01 3.62.027 7.24.01 2.29.015 4.577.003 1.425.011 2.85l.003 1.317q.002.902.008 1.804l.004 1.018c.121 1.772.621 3.23 1.467 4.798l.265.495q.424.79.853 1.578l.59 1.096q.73 1.358 1.467 2.712l1.195 2.205q.745 1.374 1.497 2.746l.319.584q.34.614.689 1.226l.355.626.323.561c.232.467.232.467.232.978-5.998 2.894-12.944 3.68-19.316 1.458-1.876-.746-3.435-1.629-4.925-2.99l-.548-.496a14.4 14.4 0 0 1-2.769-3.59 49 49 0 0 0-2.689 1.89c-6.906 5.133-14.789 7.104-23.291 7.11l-.639.001c-3.176-.002-6.252-.119-9.36-.83l-.522-.116c-6.858-1.563-13.695-5.142-17.667-11.151-4.225-7.063-5.189-14.986-3.484-23.03 1.703-6.668 5.664-11.898 11.547-15.452q.47-.276.94-.549l.442-.261c8.371-4.843 19.141-6.053 28.517-7.595 2.583-.427 5.148-.887 7.696-1.485l.657-.153c1.962-.477 3.896-1.054 5.078-2.793.803-2.64.59-5.16-.551-7.704-1.566-2.731-4.013-3.871-6.921-4.768-5.368-1.324-12.106-1.085-17.056 1.525-2.708 1.657-4.229 3.937-5.089 6.977-.486 2.098-.675 4.153-.78 6.3-3.828.6-7.665 1.108-11.509 1.587q-1.46.182-2.919.368l-1.869.234-.875.11-.816.102-.713.09a21 21 0 0 1-2.223.062c-.16-8.37-.16-8.37.766-12l.128-.532c1.921-7.838 7.026-14.357 13.871-18.553 5.89-3.457 12.878-5.184 19.693-5.222m16.143 50.989c-5.354 1.724-10.779 2.935-16.289 4.037-8.328 1.463-8.328 1.463-14.951 6.27-1.64 2.558-1.769 5.688-1.212 8.585.541 2.178 1.626 3.625 3.464 4.9 4.514 2.576 11.049 2.347 15.947 1.1 5.356-1.504 9.959-4.785 12.787-9.62 1.262-2.479 1.748-4.854 1.732-7.603l-.001-.698q-.002-1.101-.008-2.201l-.003-1.496q-.004-1.83-.013-3.658c-.497 0-.986.23-1.453.384M397.026.053l.569.002c11.047.046 21.175 3.444 29.126 11.312 5.603 5.734 8.862 13.064 10.159 20.92l.096.576c.233 1.558.207 2.928.207 4.547h-21.434l-.765-4.851c-1.278-4.508-3.259-8.135-7.321-10.692-5.03-2.734-11.716-3.278-17.192-1.664-2.702.906-5.273 2.26-7.383 4.186l-.624.553c-5.125 4.806-7.595 12.325-7.849 19.226a112 112 0 0 0-.028 3.116q-.002.955-.012 1.909c-.024 6.096 1.209 11.731 4.175 17.068l.411.763c1.757 3.014 4.432 5.514 7.499 7.152l.646.354c4.914 2.466 11.491 2.896 16.705 1.178 1.967-.681 3.694-1.559 5.359-2.809l.64-.479c3.042-2.595 4.272-6.5 5.138-10.256.502-2.045 1.345-3.818 3.073-5.095 1.169-.706 1.923-.797 3.267-.795h.506q.826 0 1.652.004l1.147.002q1.508 0 3.016.006l3.079.005 6.04.012.008 1.949.003.552a31 31 0 0 1-.314 4.457l-.104.751c-1.447 9.91-6.02 18.895-14.138 24.972-9.264 6.422-21.478 8.573-32.542 6.755-3.731-.688-7.389-1.57-10.836-3.18l-.492-.225c-3.754-1.73-7.109-3.95-10.225-6.669l-.38-.328a35.6 35.6 0 0 1-4.979-5.289l-.544-.67c-6.165-7.793-9.663-18.192-9.714-28.112l-.006-.7q-.006-1.113-.006-2.225l-.001-.767c.004-3.608.067-7.134.83-10.675l.129-.627c1.835-8.748 5.854-16.531 11.864-23.118l.608-.673C374.067 4.08 385.621-.006 397.026.053"/><path fill="#fff" d="M269.012 2.201c3.215-.227 6.428-.398 9.65-.503 1.497-.05 2.989-.118 4.483-.229 9.366-.678 9.366-.678 11.983 1.151 2.407 2.173 3.828 5.154 5.175 8.05.826 1.745 1.906 3.316 2.999 4.902.547.802 1.076 1.617 1.606 2.43q2.312 3.525 4.627 7.05l.399.607 2.201 3.35a129 129 0 0 0 4.019-5.776 214 214 0 0 1 4.144-6.055 126 126 0 0 0 2.471-3.617c1.449-2.187 2.936-4.347 4.421-6.509l.344-.503c1.28-1.868 2.529-3.632 4.759-4.348.752-.071 1.499-.064 2.253-.058h.679q1.109.001 2.216.008l1.54.002q2.022.003 4.046.013 2.064.007 4.13.01 4.051.009 8.101.025c-1.108 1.958-1.108 1.958-1.794 2.87l-.431.579-.454.604a208 208 0 0 0-3.461 4.772c-1.726 2.46-3.489 4.895-5.252 7.33a556 556 0 0 0-4.428 6.186c-1.733 2.465-3.501 4.905-5.268 7.345a472 472 0 0 0-4.835 6.771 72 72 0 0 1-1.949 2.664l-.4.524a58 58 0 0 1-.763.975c-.472.619-.808 1.078-.858 1.868.452 1.017 1.094 1.864 1.761 2.752l.913 1.24.473.637c.716.969 1.419 1.948 2.123 2.926l.829 1.149 4.976 6.893.414.575.828 1.146 2.102 2.91c1.352 1.873 2.702 3.747 4.042 5.628 1.279 1.794 2.57 3.578 3.861 5.363l2.085 2.889.829 1.149 1.659 2.298.415.575.827 1.145q1.054 1.462 2.111 2.92c4.749 6.555 4.749 6.555 4.749 6.977q-4.596.026-9.19.04-2.134.005-4.267.017-2.06.013-4.12.015-.785.003-1.57.009-1.102.007-2.203.006l-.653.008c-1.981-.01-3.397-.609-4.872-1.947-.76-.792-1.346-1.683-1.943-2.6l-.867-1.297-.458-.689c-.834-1.243-1.694-2.468-2.551-3.695a762 762 0 0 1-3.444-4.979 520 520 0 0 0-3.158-4.548 501 501 0 0 1-3.158-4.548l-.667-.97q-.64-.933-1.278-1.868-.836-1.223-1.675-2.444l-.544-.8-.51-.74-.456-.666-.388-.474h-.51c-.424.53-.424.53-.866 1.23l-.539.818-.29.444q-.613.942-1.234 1.88l-.656.995a457 457 0 0 1-3.64 5.42l-.676.998-1.366 2.014-2.384 3.52-1.678 2.476a468 468 0 0 0-2.99 4.448q-.654.985-1.311 1.969-.306.46-.609.923c-2.787 4.255-2.787 4.255-5.237 5.035-.759.071-1.514.064-2.276.058h-.687q-1.12-.001-2.241-.008l-1.556-.003q-2.045-.004-4.091-.012-2.089-.007-4.177-.01-4.096-.009-8.192-.025c.403-1.07.891-1.82 1.611-2.713 1.103-1.394 2.117-2.835 3.11-4.309a86 86 0 0 1 3.568-4.906c.878-1.132 1.691-2.309 2.513-3.482a313 313 0 0 1 3.249-4.553l.837-1.156 2.129-2.945.42-.582a705 705 0 0 0 2.77-3.867 803 803 0 0 1 3.06-4.252 630 630 0 0 0 2.505-3.49 752 752 0 0 1 2.887-4.022l.417-.578q1.11-1.54 2.229-3.071l.462-.634q.44-.604.882-1.207l.399-.549.353-.482c.327-.467.327-.467.536-1.202-.281-.564-.281-.564-.724-1.153l-.497-.704-.549-.76-1.139-1.608-.593-.831a376 376 0 0 1-2.622-3.753l-1.018-1.465-2.062-2.966a2360 2360 0 0 0-5.266-7.554c-1.309-1.869-2.61-3.742-3.912-5.615q-1.865-2.684-3.741-5.36-1.995-2.852-3.976-5.715a212 212 0 0 0-2.284-3.239l-.366-.507q-.328-.452-.661-.902c-.699-.962-.699-.962-.699-1.528m320.756 1.263v18.894l-7.145-.766c-1.219-.06-2.391-.113-3.604-.096l-.855.008c-4.686.088-9.614.805-13.147 4.173l-.529.49c-4.668 4.741-4.905 12.234-4.911 18.463l-.008 1.617q-.01 2.178-.014 4.357-.007 2.283-.017 4.566a6208 6208 0 0 0-.03 8.631q-.015 4.917-.035 9.833-.04 10.106-.07 20.213h-21.434V2.187c17.51 0 17.51 0 19.71 2.055 1.207 1.342 1.568 2.868 1.979 4.584l.656-.487c8.989-6.598 18.81-9.135 29.454-4.875"/><path fill="#31317c" d="M122.565 55.053c.705.323 1.228.654 1.776 1.203l.431.428.467.47.501.5q.832.832 1.662 1.666l1.192 1.192q1.62 1.62 3.236 3.24 1.69 1.694 3.382 3.386l5.675 5.685a8273 8273 0 0 0 5.846 5.854l.364.365.363.363 6.315 6.321 2.692 2.695a4299 4299 0 0 1 4.329 4.338l1.582 1.586.473.472c1.051 1.058 1.051 1.058 1.051 1.342q-6.248.027-12.497.04-2.901.006-5.802.018-2.529.012-5.058.014-1.34.001-2.678.01-1.496.006-2.991.005l-.894.008c-2.291-.008-3.494-.51-5.115-2.116l-.503-.51a680 680 0 0 1-2.306-2.315l-1.233-1.236q-1.293-1.294-2.581-2.593a1745 1745 0 0 0-3.298-3.31q-1.58-1.584-3.158-3.17l-.604-.605-1.703-1.713-.501-.503a56 56 0 0 1-2.761-3.001c-.692-.788-1.437-1.521-2.183-2.257a416 416 0 0 0-1.547-1.532 49 49 0 0 1 3.04-3.326l.431-.43 1.391-1.39.972-.97 2.545-2.54 2.601-2.598q2.547-2.544 5.096-5.086"/><path fill="#f59546" d="M81.17 13.685c2.075 1.905 4.033 3.938 6.014 5.94l1.464 1.47q1.773 1.785 3.544 3.572a49 49 0 0 1-3.04 3.326l-.43.431-1.392 1.388-.972.971q-1.271 1.272-2.544 2.54l-2.602 2.598-5.096 5.086c-1.42-1.182-2.728-2.445-4.027-3.759l-.634-.636-1.989-2.004-2.624-2.641-.602-.61c-.797-.8-1.587-1.588-2.462-2.305a9.6 9.6 0 0 1-1.434-1.424c-1.319-1.545-2.774-2.96-4.211-4.393q-.748-.747-1.493-1.496c-1.419-1.42-2.831-2.833-4.362-4.134-.579-.492-1.125-1.018-1.678-1.54-5.934-5.389-12.977-9.569-21.18-9.526-2.127.139-4.048.598-6.04 1.352-.593.18-.593.18-1.104-.075C27.978 3.82 34.626 1.854 41.414.667l.581-.103c14.76-2.48 28.316 3.458 39.176 13.121"/><path fill="#f5b830" d="M25.338 6.538c-.595.893-.818.927-1.818 1.197l-.704.194-.54.14c1.813-1.948 1.813-1.948 3.062-1.531"/></svg>