<svg xmlns="http://www.w3.org/2000/svg" width="598" height="103" fill="none" viewBox="0 0 598 103"><path fill="#01d176" d="M73.822 45.592a5.65 5.65 0 0 0 4.015-1.67 5.7 5.7 0 0 0 1.664-4.029V17.097a5.693 5.693 0 0 0-5.679-5.7c-3.136 0-5.68-2.551-5.68-5.698a5.7 5.7 0 0 0-1.663-4.03A5.65 5.65 0 0 0 62.464 0H17.035a5.65 5.65 0 0 0-4.015 1.67 5.7 5.7 0 0 0-1.663 4.029 5.7 5.7 0 0 1-1.663 4.03 5.65 5.65 0 0 1-4.016 1.669 5.65 5.65 0 0 0-4.015 1.669A5.7 5.7 0 0 0 0 17.097v22.796c0 3.147 2.542 5.699 5.678 5.699 1.57 0 2.988.637 4.016 1.67a5.7 5.7 0 0 1 1.663 4.029 5.7 5.7 0 0 1-1.663 4.03 5.65 5.65 0 0 1-4.016 1.669 5.65 5.65 0 0 0-4.015 1.669A5.7 5.7 0 0 0 0 62.689v22.796c0 3.147 2.542 5.699 5.678 5.699 1.57 0 2.988.637 4.016 1.67a5.7 5.7 0 0 1 1.663 4.029c0 3.147 2.543 5.699 5.678 5.699h45.43a5.65 5.65 0 0 0 4.014-1.67 5.7 5.7 0 0 0 1.664-4.03c0-1.573.635-2.998 1.663-4.029a5.65 5.65 0 0 1 4.016-1.67 5.65 5.65 0 0 0 4.015-1.669 5.7 5.7 0 0 0 1.664-4.029V62.69a5.7 5.7 0 0 0-1.664-4.03 5.65 5.65 0 0 0-4.015-1.67c-3.136 0-5.68-2.551-5.68-5.698a5.7 5.7 0 0 1 1.664-4.03 5.65 5.65 0 0 1 4.016-1.67M66.48 78.117a5.65 5.65 0 0 1-4.015 1.67 5.65 5.65 0 0 0-4.015 1.669 5.7 5.7 0 0 0-1.663 4.03 5.7 5.7 0 0 1-1.664 4.028 5.65 5.65 0 0 1-4.015 1.67H28.394c-3.137 0-5.68-2.552-5.68-5.699a5.7 5.7 0 0 0-1.664-4.03 5.65 5.65 0 0 0-4.015-1.669c-3.135 0-5.678-2.552-5.678-5.7 0-1.573.636-2.997 1.663-4.03a5.65 5.65 0 0 1 4.015-1.669 5.65 5.65 0 0 0 4.015-1.669 5.7 5.7 0 0 0 1.664-4.03c0-1.573.636-2.997 1.663-4.029a5.65 5.65 0 0 1 4.017-1.67h22.713c1.568 0 2.988.638 4.015 1.67a5.7 5.7 0 0 1 1.664 4.03c0 3.148 2.543 5.698 5.678 5.698 1.568 0 2.988.638 4.015 1.67a5.7 5.7 0 0 1 1.664 4.03 5.7 5.7 0 0 1-1.664 4.03m0-45.593a5.65 5.65 0 0 1-4.015 1.67 5.693 5.693 0 0 0-5.678 5.7 5.7 5.7 0 0 1-1.664 4.029 5.65 5.65 0 0 1-4.015 1.669H28.394c-3.137 0-5.68-2.552-5.68-5.699a5.7 5.7 0 0 0-1.664-4.03 5.65 5.65 0 0 0-4.015-1.67c-3.135 0-5.678-2.55-5.678-5.699a5.69 5.69 0 0 1 5.678-5.699 5.65 5.65 0 0 0 4.015-1.669 5.7 5.7 0 0 0 1.664-4.03 5.69 5.69 0 0 1 5.68-5.698h22.713a5.65 5.65 0 0 1 4.015 1.669 5.7 5.7 0 0 1 1.664 4.03c0 3.147 2.543 5.698 5.678 5.698a5.65 5.65 0 0 1 4.015 1.67 5.7 5.7 0 0 1 1.664 4.03 5.7 5.7 0 0 1-1.664 4.029"/><path fill="#fff" d="M106.856 32.963h37.969v7.823h-28.34v7.332h25.44v7.604h-25.44V69.62h-9.629zm43.811 36.656V32.963h9.683v28.832h28.231v7.824zm63.428-37.149h2.626c13.131 0 23.58 6.456 23.58 17.945v1.751c0 11.599-10.449 17.945-23.58 17.945h-2.626c-13.404 0-24.072-6.346-24.072-17.945v-1.75c0-11.49 10.668-17.945 24.072-17.945m0 8.262c-8.644 0-14.17 3.447-14.17 9.683v1.751c0 6.292 5.526 9.684 14.17 9.684h2.188c8.645 0 14.17-3.392 14.17-9.684v-1.75c0-6.237-5.525-9.684-14.17-9.684zm55.191-8.263h2.626c13.131 0 23.58 6.456 23.58 17.945v1.751c0 11.599-10.449 17.945-23.58 17.945h-2.626c-13.404 0-24.072-6.346-24.072-17.945v-1.75c0-11.49 10.668-17.945 24.072-17.945m0 8.262c-8.644 0-14.17 3.447-14.17 9.683v1.751c0 6.292 5.526 9.684 14.17 9.684h2.188c8.645 0 14.17-3.392 14.17-9.684v-1.75c0-6.237-5.525-9.684-14.17-9.684zm32.582-7.77h30.802c8.097 0 12.911 4.54 12.911 10.887v1.642c0 4.814-2.79 8.589-7.44 10.12l9.136 14.007H336.28l-8.644-13.24h-16.085v13.24h-9.683zm9.683 7.222v8.863h18.547c3.72 0 5.635-1.15 5.635-3.94v-.82c0-2.68-1.915-4.103-5.635-4.103zm54.697-7.222h40.486v7.55h-30.857v6.948h27.793v7.058h-27.793v7.495h31.13v7.605h-40.759zm46.41 0h29.762v7.823h-10.066v21.01h10.066v7.823h-29.762v-7.824h10.067V40.786h-10.067zm57.218-.493h2.681c13.021 0 22.54 5.253 22.54 15.1h-9.848c0-3.83-4.322-6.838-12.692-6.838h-2.681c-8.207 0-12.802 3.392-12.802 9.355v2.298c0 6.292 4.595 9.465 12.802 9.465h2.681c8.316 0 12.857-2.955 12.857-7.331h10.012v15.1h-8.316v-4.377h-1.861c-3.337 3.173-8.316 4.87-14.06 4.87h-2.681c-11.708 0-21.337-5.527-21.337-17.727v-2.298c0-12.146 10.231-17.617 22.705-17.617m32.56.493h9.684v14.006h24.784V32.963h9.683v36.656h-9.683V54.847H512.12v14.772h-9.684zm48.936 0h46.449v7.823h-18.383V69.62h-9.684V40.786h-18.382z"/></svg>