<svg xmlns="http://www.w3.org/2000/svg" width="872" height="251" fill="none" viewBox="0 0 872 251"><g fill="#fff" clip-path="url(#a)"><path d="M52.126 251v-86.841H168.51v-50.372H56.457s-13.905-44.294 34.75-61.668h156.354V251h55.595V52.12h81.659L434.308 0H96.425S8.688 5.217 0 99.022V251z"/><path d="M434.297 0h54.734v153.726s7.827 49.51 61.675 46.041 62.536-35.608 62.536-52.981V0h57.318v158.081s-1.747 85.98-118.131 92.919c-103.366 0-118.132-85.979-118.132-85.979zm361.345 0h72.109L741.793 125.5 872.083 251H794.78L670.569 125.943z"/></g><defs><clipPath id="a"><path fill="#fff" d="M0 0h872v251H0z"/></clipPath></defs></svg>