<svg xmlns="http://www.w3.org/2000/svg" width="578" height="281" fill="none" viewBox="0 0 578 281"><path fill="#fff" d="M146.968 91.848v15.429h-32.945V91.848H93.766V30.89h21.47v14.673h50.257l-15.459-13.932 15.459-13.878h-30.692V3.026H86.903v88.809H64.459v15.428H31.447V91.835H1.554v36.988h.054l23.602 23.798v49.715l63.985 38.074 64.051-38.127v-49.649l23.536-23.798h.053V91.848z"/><path fill="url(#a)" d="m89.207 257.931 64.678-39.398v22.698l-64.651 39.386-64.704-39.386v-22.659z"/><path fill="url(#b)" d="m123.18 167.745-33.998 20.236-33.945-20.196v16.355l33.945 20.196 33.998-20.235z"/><path fill="url(#c)" d="M123.18 141.404 89.182 161.64l-33.945-20.196V157.8l33.945 20.195 33.998-20.235z"/><path fill="#fff" d="M215.284 90.974h33.571c1.599 0 3.052.397 4.385 1.192a9.4 9.4 0 0 1 3.211 3.165c.814 1.324 1.227 2.794 1.227 4.41v8.396c0 .53-.04 1.02-.12 1.497-.08.463-.2.927-.373 1.363a12.2 12.2 0 0 1 1.599 2.768c.413.994.613 2 .613 3.02v9.257c0 1.629-.413 3.099-1.226 4.41a9.4 9.4 0 0 1-3.212 3.165c-1.32.795-2.812 1.192-4.438 1.192h-35.224V90.974zm9.182 17.11h23.896c.08 0 .16-.026.24-.093.08-.066.12-.132.12-.211v-7.615a.34.34 0 0 0-.12-.279.37.37 0 0 0-.24-.092h-23.896c-.12 0-.213.026-.28.093-.067.066-.093.159-.093.278v7.615c0 .079.026.159.093.211.067.053.16.093.28.093m0 17.905h25.615c.12 0 .213-.027.28-.093s.093-.145.093-.278v-8.343a.36.36 0 0 0-.093-.239c-.067-.079-.147-.119-.28-.119h-25.615q-.18 0-.28.119a.36.36 0 0 0-.093.239v8.343c0 .119.026.212.093.278.067.053.16.093.28.093m41.661 8.82V90.908h8.823v35.068h35.291v8.833zm51.938-1.178a9.1 9.1 0 0 1-3.185-3.165q-1.2-1.987-1.2-4.411V90.987h8.822v34.645c0 .119.028.212.093.278.066.066.162.093.28.093h25.615c.122 0 .215-.027.28-.093.069-.066.093-.146.093-.278V90.987h8.944v35.068c0 1.629-.413 3.099-1.228 4.411a9.4 9.4 0 0 1-3.21 3.165c-1.333.794-2.787 1.192-4.384 1.192h-26.47q-2.475-.02-4.45-1.192m46.591 1.178V90.974h40.69v8.833h-31.734v8.648h25.55v8.887h-25.55v8.647h31.734v8.833h-40.69zM223.92 190.947q-2.458 0-4.438-1.192a9.2 9.2 0 0 1-3.185-3.165q-1.2-1.987-1.199-4.41v-26.301q0-2.443 1.199-4.41a9.1 9.1 0 0 1 3.185-3.165q2-1.192 4.438-1.192h26.415q2.459 0 4.438 1.192a9.4 9.4 0 0 1 3.212 3.165c.813 1.324 1.226 2.794 1.226 4.41v3.774h-8.943v-3.35c0-.12-.026-.212-.093-.279-.067-.066-.16-.092-.28-.092H224.28c-.12 0-.213.026-.28.092-.066.067-.093.159-.093.279v25.453c0 .119.027.212.093.278.067.066.16.093.28.093h25.615c.12 0 .213-.027.28-.093s.093-.159.093-.278v-7.178h-9.742v-8.833h18.685v16.435c0 1.629-.413 3.099-1.226 4.41a9.5 9.5 0 0 1-3.212 3.165q-2 1.192-4.438 1.192zm46.286-1.192a9.1 9.1 0 0 1-3.186-3.165q-1.199-1.987-1.199-4.41v-35.068h8.823v34.644c0 .119.026.212.093.278s.16.093.28.093h25.615c.12 0 .213-.027.28-.093s.093-.159.093-.278v-34.644h8.943v35.068c0 1.629-.413 3.099-1.226 4.41a9.5 9.5 0 0 1-3.212 3.165c-1.333.794-2.786 1.192-4.385 1.192h-26.468c-1.639 0-3.118-.398-4.451-1.192m46.591-33.876q.001-2.443 1.199-4.41a9.1 9.1 0 0 1 3.186-3.165q1.999-1.192 4.44-1.192h26.402q2.456 0 4.437 1.192a9.36 9.36 0 0 1 3.21 3.165c.815 1.324 1.228 2.794 1.228 4.41v35.068h-8.944v-14.435h-26.348v14.435h-8.823v-35.068zm35.171 11.879v-11.442c0-.119-.025-.212-.093-.278-.066-.066-.159-.093-.28-.093H325.98c-.118 0-.212.027-.28.093-.065.066-.093.159-.093.278v11.442zm15.926 23.189v-43.782h35.239q2.457 0 4.438 1.192a9.2 9.2 0 0 1 3.21 3.192 8.27 8.27 0 0 1 1.227 4.383v11.575a8.15 8.15 0 0 1-1.227 4.357 9.4 9.4 0 0 1-3.21 3.165q-2 1.192-4.438 1.192l-26.417.053v14.673zm9.195-23.56h25.615c.122 0 .215-.026.28-.092a.28.28 0 0 0 .093-.212v-10.78c0-.119-.025-.212-.093-.278-.065-.066-.158-.093-.28-.093h-25.615c-.118 0-.211.027-.28.093-.065.066-.093.159-.093.278v10.78c0 .079.028.159.093.212a.45.45 0 0 0 .28.092m25.497 23.56-13.048-15.468h11.582l10.783 12.727v2.741zm15.979 0v-43.835h35.236q2.46 0 4.441 1.192a9.4 9.4 0 0 1 3.21 3.165c.814 1.324 1.228 2.794 1.228 4.41v26.301c0 1.629-.414 3.099-1.228 4.41a9.4 9.4 0 0 1-3.21 3.165q-1.999 1.192-4.441 1.192zm9.13-8.82h25.668c.121 0 .215-.027.28-.093s.093-.159.093-.278v-25.453c0-.12-.028-.212-.093-.279-.065-.066-.159-.092-.28-.092h-25.668a.36.36 0 0 0-.239.092.34.34 0 0 0-.121.279v25.453q0 .179.121.278a.44.44 0 0 0 .239.093m40.634 8.82v-43.835h8.757v43.835zm14.447-35.068q0-2.443 1.2-4.41a9.1 9.1 0 0 1 3.185-3.165q2-1.192 4.437-1.192H518q2.462 0 4.437 1.192a9.4 9.4 0 0 1 3.214 3.165c.814 1.324 1.227 2.794 1.227 4.41v35.068h-8.943v-14.435h-26.337v14.435h-8.822zm35.171 11.879v-11.442c0-.119-.025-.212-.093-.278-.065-.066-.159-.093-.28-.093h-25.615c-.118 0-.215.027-.28.093s-.093.159-.093.278v11.442zm15.939 23.189v-43.835h9.369l25.801 30.565v-30.565H578v43.835h-9.369l-25.923-30.685v30.685zm-318.669 56.138V203.25h40.689v8.833h-31.732v8.648h25.548v8.886h-25.548v17.468zm48.431-1.192a9.1 9.1 0 0 1-3.185-3.165q-1.199-1.987-1.199-4.41V203.25h8.822v34.644c0 .119.027.212.094.278.066.067.16.093.28.093h25.615c.12 0 .213-.026.28-.093.066-.066.093-.159.093-.278V203.25h8.943v35.068c0 1.629-.414 3.099-1.227 4.41a9.5 9.5 0 0 1-3.212 3.165c-1.332.795-2.785 1.192-4.384 1.192H268.1c-1.64 0-3.119-.397-4.452-1.192m61.918 1.192v-35.002h-17.644v-8.833h44.114v8.833h-17.579v35.002zm35.317-1.192a9.1 9.1 0 0 1-3.185-3.165q-1.199-1.987-1.199-4.41V203.25h8.825v34.644c0 .119.025.212.093.278.065.067.159.093.28.093h25.615c.118 0 .212-.026.28-.093.065-.066.093-.159.093-.278V203.25h8.94v35.068c0 1.629-.413 3.099-1.224 4.41a9.5 9.5 0 0 1-3.213 3.165c-1.333.795-2.784 1.192-4.385 1.192h-26.467c-1.64 0-3.12-.397-4.453-1.192m46.473 1.192v-43.782h35.24q2.456 0 4.437 1.191a9.2 9.2 0 0 1 3.21 3.192 8.3 8.3 0 0 1 1.228 4.384v11.561a8.14 8.14 0 0 1-1.228 4.357 9.4 9.4 0 0 1-3.21 3.165q-2 1.192-4.437 1.192l-26.417.066v14.674zm9.196-23.56h25.615c.121 0 .214-.026.28-.093a.28.28 0 0 0 .093-.212v-10.78c0-.119-.025-.212-.093-.278-.066-.066-.159-.092-.28-.092h-25.615c-.119 0-.212.026-.28.092-.065.066-.093.159-.093.278v10.78c0 .08.028.146.093.212.068.067.146.093.28.093m25.481 23.56-13.045-15.469h11.582l10.78 12.727v2.742zm15.995 0V203.25h40.69v8.833h-31.734v8.648h25.55v8.886h-25.55v8.648h31.734v8.833h-40.69zm55.454 0a8.5 8.5 0 0 1-4.41-1.192c-1.346-.795-2.411-1.841-3.185-3.165q-1.16-1.987-1.159-4.41v-3.708h8.822v3.284c0 .119.025.212.093.278a.28.28 0 0 0 .211.093h25.672a.37.37 0 0 0 .239-.093.35.35 0 0 0 .118-.278v-7.972c0-.08-.04-.146-.118-.212a.37.37 0 0 0-.239-.093h-26.044a8.5 8.5 0 0 1-4.41-1.192 8.74 8.74 0 0 1-3.185-3.192c-.774-1.337-1.159-2.794-1.159-4.383v-8.833q-.001-2.443 1.159-4.41c.774-1.324 1.839-2.371 3.185-3.165a8.5 8.5 0 0 1 4.41-1.192h26.535c1.6 0 3.051.397 4.384 1.192a9.4 9.4 0 0 1 3.214 3.165c.811 1.324 1.224 2.794 1.224 4.41v3.708h-8.94v-3.284a.34.34 0 0 0-.122-.278.36.36 0 0 0-.239-.093H513.87a.26.26 0 0 0-.214.093.44.44 0 0 0-.094.278v7.972c0 .08.028.159.094.212.068.053.133.093.214.093h26.159c1.601 0 3.055.397 4.385 1.192a9.24 9.24 0 0 1 3.213 3.191 8.3 8.3 0 0 1 1.227 4.384v8.833c0 1.629-.413 3.099-1.227 4.41a9.5 9.5 0 0 1-3.213 3.165c-1.33.795-2.784 1.192-4.385 1.192z"/><defs><linearGradient id="a" x1="89.207" x2="89.207" y1="280.616" y2="218.535" gradientUnits="userSpaceOnUse"><stop offset=".088" stop-color="#074783"/><stop offset=".922" stop-color="#2d81d6"/></linearGradient><linearGradient id="b" x1="55.234" x2="123.181" y1="186.039" y2="186.039" gradientUnits="userSpaceOnUse"><stop offset=".194" stop-color="#074783"/><stop offset=".922" stop-color="#2d81d6"/></linearGradient><linearGradient id="c" x1="55.234" x2="123.181" y1="159.701" y2="159.701" gradientUnits="userSpaceOnUse"><stop offset=".194" stop-color="#074783"/><stop offset=".922" stop-color="#2d81d6"/></linearGradient></defs></svg>