<svg xmlns="http://www.w3.org/2000/svg" width="842" height="112" fill="none" viewBox="0 0 842 112"><path fill="url(#a)" fill-rule="evenodd" d="M18.03 3.74C10.266 7.99 1.68 23.611 1.68 33.476c0 7.79 6.856 19.223 9.668 16.12 1.017-1.123 3.17-6.215 4.787-11.32 5.548-17.524 8.754-18.822 46.542-18.822h33.462l4.797-7.942c2.638-4.37 4.799-8.766 4.804-9.775S87.508-.052 65.21.003C34.04.078 23.138.94 18.03 3.739m16.354 41.673c-2.014 4.868-3.662 9.266-3.662 9.774 0 .509 8.169.924 18.152.924 19.163 0 21.38 1.628 13.311 9.775-3.908 3.947-8.066 4.888-21.598 4.888H23.832l-5.886 18.328c-3.239 10.08-5.228 18.323-4.422 18.316s13.716-7.08 28.685-15.714C72.58 74.185 88.64 61.894 93.746 52.262c3.153-5.948 2.977-6.813-2.237-11.075-4.698-3.841-9.715-4.626-29.559-4.626H38.049z" clip-rule="evenodd"/><g fill="#fff" clip-path="url(#b)"><path d="M167.401 87.115q-5.949 0-11.227-1.76-5.195-1.844-8.714-5.781-3.519-4.021-4.608-10.473h10.641q1.005 3.268 3.183 5.11 2.263 1.844 5.279 2.598 3.017.67 6.116.67 2.766 0 5.195-.67 2.514-.755 4.106-2.43 1.675-1.675 1.675-4.44 0-2.095-.921-3.352-.839-1.341-2.43-2.178-1.508-.922-3.687-1.425a44 44 0 0 0-4.524-1.173q-2.43-.503-4.776-1.089a27.7 27.7 0 0 1-4.441-1.508 53 53 0 0 1-5.194-2.095q-2.43-1.257-4.273-3.016-1.76-1.76-2.849-4.357t-1.089-6.2q0-4.105 1.34-7.038 1.425-3.016 3.687-4.943a18.6 18.6 0 0 1 5.194-3.017 32 32 0 0 1 6.033-1.592q3.184-.502 6.033-.502 5.53 0 10.054 1.843 4.608 1.843 7.541 5.697t3.351 9.887h-10.138q-.335-2.85-2.011-4.524-1.675-1.76-4.189-2.514-2.514-.838-5.446-.838a24.4 24.4 0 0 0-4.022.335q-1.927.336-3.519 1.173a7.5 7.5 0 0 0-2.514 2.263q-.921 1.34-.921 3.435 0 1.843.921 3.267.923 1.34 2.514 2.263 1.676.922 3.938 1.675 2.933 1.173 6.368 1.76 3.519.585 6.619 1.592 3.016.838 5.53 2.094 2.596 1.173 4.44 2.933 1.844 1.676 2.849 4.19 1.089 2.43 1.089 5.864 0 5.028-1.843 8.546a15 15 0 0 1-4.943 5.614q-3.1 2.178-7.122 3.184-3.938.922-8.295.922m59.238 0q-9.132 0-15.584-3.855-6.368-3.854-9.803-10.724-3.351-6.87-3.352-15.668 0-8.965 3.436-15.752 3.435-6.87 9.886-10.724 6.451-3.939 15.585-3.938 9.132 0 15.5 3.854 6.452 3.855 9.887 10.724 3.435 6.787 3.435 15.668 0 8.798-3.435 15.668-3.352 6.87-9.887 10.809-6.452 3.938-15.668 3.938m.168-9.72q6.367 0 10.389-2.932t5.865-7.625q1.927-4.692 1.927-9.97 0-4.021-1.089-7.708-1.005-3.686-3.268-6.62-2.178-2.931-5.613-4.608-3.436-1.76-8.211-1.76-6.285 0-10.39 2.933-4.022 2.933-5.949 7.625t-1.927 10.138q0 5.362 1.927 10.054t5.949 7.625q4.105 2.848 10.39 2.848m38.755 9.049V27.207h10.473v49.686h30.834v9.551zm44.527 0 22.706-59.237h12.484l22.622 59.237H356.59l-3.938-10.976h-27.314l-4.022 10.976zM328.689 66h20.528l-10.222-28.236zm46.186 20.444V27.207h11.227l28.571 43.15v-43.15h10.474v59.237h-10.976l-28.823-42.899v42.899zm57.212 0 22.706-59.237h12.484l22.622 59.237h-11.311l-3.938-10.976h-27.314l-4.022 10.976zM450.687 66h20.528l-10.222-28.235zm46.186 20.444V27.207h41.39v9.552h-30.917v17.679h26.477v9.551h-26.477v22.455zm74.533.67q-8.461 0-13.908-3.267-5.446-3.351-8.044-9.384-2.597-6.033-2.597-14.244V27.207h10.473v33.264q0 4.524 1.257 8.462 1.34 3.854 4.441 6.2 3.183 2.346 8.546 2.346 5.446 0 8.379-2.346 3.015-2.43 4.189-6.284 1.257-3.854 1.257-8.379V27.209h10.557V60.22q0 8.127-2.598 14.16t-7.959 9.384-13.993 3.351m37.404-.671V27.207h11.228l28.571 43.15v-43.15h10.473v59.237h-10.976l-28.822-42.899v42.899zm63.487 0V27.207h21.868q9.3 0 15.752 3.603 6.451 3.519 9.802 10.222 3.436 6.62 3.436 15.92 0 9.132-3.352 15.751-3.267 6.62-9.719 10.222-6.451 3.519-15.835 3.519zm10.473-9.552h11.227q6.62 0 10.641-2.513 4.106-2.598 5.949-7.038 1.927-4.525 1.927-10.473 0-5.782-1.843-10.306-1.843-4.525-5.949-7.122-4.022-2.68-10.641-2.681H682.77zm50.403 9.552V27.207h41.809v9.552h-31.336v15.584h27.23v9.384h-27.23v15.165h31.336v9.552zm51.795 0V27.207h21.868q9.3 0 15.752 3.603 6.452 3.52 9.803 10.222 3.435 6.62 3.435 15.92 0 9.132-3.351 15.751-3.268 6.62-9.719 10.222-6.452 3.52-15.836 3.52zm10.473-9.552h11.228q6.618 0 10.64-2.513 4.106-2.598 5.949-7.038 1.927-4.524 1.927-10.473 0-5.781-1.843-10.306-1.844-4.524-5.949-7.122-4.022-2.68-10.64-2.68h-11.312z"/></g><defs><linearGradient id="a" x1="1.679" x2="112.26" y1="0" y2="27.328" gradientUnits="userSpaceOnUse"><stop stop-color="#14f195"/><stop offset="1" stop-color="#9945ff"/></linearGradient><clipPath id="b"><path fill="#fff" d="M142.852.089h698.216v111.715H142.852z"/></clipPath></defs></svg>