<svg width="66" height="19" viewBox="0 0 66 19" fill="none" xmlns="http://www.w3.org/2000/svg">
<path d="M3.94529 19V12.4264H12.7542V8.61333H4.27314C4.27314 8.61333 3.22069 5.26039 6.90333 3.94529H18.7374V19H22.9453V3.94529H29.1259L32.8719 0H7.29824C7.29824 0 0.657549 0.394902 0 7.49569V19H3.94529Z" fill="white"/>
<path d="M32.8711 0H37.0138V11.6366C37.0138 11.6366 37.6062 15.3844 41.6819 15.1218C45.7576 14.8591 46.4151 12.4264 46.4151 11.1113V0H50.7534V11.9663C50.7534 11.9663 50.6212 18.4747 41.8123 19C33.9887 19 32.8711 12.4916 32.8711 12.4916V0Z" fill="white"/>
<path d="M60.2206 0H65.6784L56.1449 9.5L66.0063 19H60.1554L50.7541 9.53353L60.2206 0Z" fill="white"/>
</svg>
